G04 #@! TF.GenerationSoftware,KiCad,Pcbnew,(6.0.2)*
G04 #@! TF.CreationDate,2025-06-29T10:14:29-07:00*
G04 #@! TF.ProjectId,z80-cpu-mem,7a38302d-6370-4752-9d6d-656d2e6b6963,1.1*
G04 #@! TF.SameCoordinates,Original*
G04 #@! TF.FileFunction,Legend,Top*
G04 #@! TF.FilePolarity,Positive*
%FSLAX46Y46*%
G04 Gerber Fmt 4.6, Leading zero omitted, Abs format (unit mm)*
G04 Created by KiCad (PCBNEW (6.0.2)) date 2025-06-29 10:14:29*
%MOMM*%
%LPD*%
G01*
G04 APERTURE LIST*
%ADD10C,0.120000*%
%ADD11C,0.150000*%
G04 APERTURE END LIST*
D10*
X215582500Y-123190000D02*
X218122500Y-120650000D01*
X220027500Y-122555000D02*
X219392500Y-123190000D01*
X220662500Y-123190000D02*
X220027500Y-122555000D01*
X221932500Y-123190000D02*
X220662500Y-123190000D01*
X216852500Y-123190000D02*
X215582500Y-123190000D01*
X219392500Y-123190000D02*
X218122500Y-121920000D01*
X218122500Y-120650000D02*
X219392500Y-121920000D01*
X218122500Y-121920000D02*
X216852500Y-123190000D01*
X220027500Y-121285000D02*
X221932500Y-123190000D01*
X219392500Y-121920000D02*
X220027500Y-121285000D01*
X220027500Y-121285000D02*
X220027500Y-122555000D01*
X220027500Y-121920000D02*
X221297500Y-123190000D01*
X219392500Y-121920000D02*
X219392500Y-123190000D01*
X218122500Y-121285000D02*
X219392500Y-122555000D01*
X218122500Y-120650000D02*
X218122500Y-121920000D01*
X125730000Y-125730000D02*
X125730000Y-123825000D01*
D11*
X157472857Y-79478214D02*
X157663333Y-80144880D01*
X157853809Y-79668690D01*
X158044285Y-80144880D01*
X158234761Y-79478214D01*
X158520476Y-79478214D02*
X158710952Y-80144880D01*
X158901428Y-79668690D01*
X159091904Y-80144880D01*
X159282380Y-79478214D01*
X159568095Y-79478214D02*
X159758571Y-80144880D01*
X159949047Y-79668690D01*
X160139523Y-80144880D01*
X160330000Y-79478214D01*
X160710952Y-80049642D02*
X160758571Y-80097261D01*
X160710952Y-80144880D01*
X160663333Y-80097261D01*
X160710952Y-80049642D01*
X160710952Y-80144880D01*
X161187142Y-80144880D02*
X161187142Y-79478214D01*
X161187142Y-79573452D02*
X161234761Y-79525833D01*
X161330000Y-79478214D01*
X161472857Y-79478214D01*
X161568095Y-79525833D01*
X161615714Y-79621071D01*
X161615714Y-80144880D01*
X161615714Y-79621071D02*
X161663333Y-79525833D01*
X161758571Y-79478214D01*
X161901428Y-79478214D01*
X161996666Y-79525833D01*
X162044285Y-79621071D01*
X162044285Y-80144880D01*
X162949047Y-80144880D02*
X162949047Y-79621071D01*
X162901428Y-79525833D01*
X162806190Y-79478214D01*
X162615714Y-79478214D01*
X162520476Y-79525833D01*
X162949047Y-80097261D02*
X162853809Y-80144880D01*
X162615714Y-80144880D01*
X162520476Y-80097261D01*
X162472857Y-80002023D01*
X162472857Y-79906785D01*
X162520476Y-79811547D01*
X162615714Y-79763928D01*
X162853809Y-79763928D01*
X162949047Y-79716309D01*
X163568095Y-80144880D02*
X163472857Y-80097261D01*
X163425238Y-80002023D01*
X163425238Y-79144880D01*
X163949047Y-80144880D02*
X163949047Y-79478214D01*
X163949047Y-79144880D02*
X163901428Y-79192500D01*
X163949047Y-79240119D01*
X163996666Y-79192500D01*
X163949047Y-79144880D01*
X163949047Y-79240119D01*
X164425238Y-79478214D02*
X164425238Y-80144880D01*
X164425238Y-79573452D02*
X164472857Y-79525833D01*
X164568095Y-79478214D01*
X164710952Y-79478214D01*
X164806190Y-79525833D01*
X164853809Y-79621071D01*
X164853809Y-80144880D01*
X165472857Y-80144880D02*
X165377619Y-80097261D01*
X165330000Y-80049642D01*
X165282380Y-79954404D01*
X165282380Y-79668690D01*
X165330000Y-79573452D01*
X165377619Y-79525833D01*
X165472857Y-79478214D01*
X165615714Y-79478214D01*
X165710952Y-79525833D01*
X165758571Y-79573452D01*
X165806190Y-79668690D01*
X165806190Y-79954404D01*
X165758571Y-80049642D01*
X165710952Y-80097261D01*
X165615714Y-80144880D01*
X165472857Y-80144880D01*
X166139523Y-79478214D02*
X166377619Y-80144880D01*
X166615714Y-79478214D01*
X166996666Y-80049642D02*
X167044285Y-80097261D01*
X166996666Y-80144880D01*
X166949047Y-80097261D01*
X166996666Y-80049642D01*
X166996666Y-80144880D01*
X167901428Y-80097261D02*
X167806190Y-80144880D01*
X167615714Y-80144880D01*
X167520476Y-80097261D01*
X167472857Y-80049642D01*
X167425238Y-79954404D01*
X167425238Y-79668690D01*
X167472857Y-79573452D01*
X167520476Y-79525833D01*
X167615714Y-79478214D01*
X167806190Y-79478214D01*
X167901428Y-79525833D01*
X168472857Y-80144880D02*
X168377619Y-80097261D01*
X168330000Y-80049642D01*
X168282380Y-79954404D01*
X168282380Y-79668690D01*
X168330000Y-79573452D01*
X168377619Y-79525833D01*
X168472857Y-79478214D01*
X168615714Y-79478214D01*
X168710952Y-79525833D01*
X168758571Y-79573452D01*
X168806190Y-79668690D01*
X168806190Y-79954404D01*
X168758571Y-80049642D01*
X168710952Y-80097261D01*
X168615714Y-80144880D01*
X168472857Y-80144880D01*
X169234761Y-80144880D02*
X169234761Y-79478214D01*
X169234761Y-79573452D02*
X169282380Y-79525833D01*
X169377619Y-79478214D01*
X169520476Y-79478214D01*
X169615714Y-79525833D01*
X169663333Y-79621071D01*
X169663333Y-80144880D01*
X169663333Y-79621071D02*
X169710952Y-79525833D01*
X169806190Y-79478214D01*
X169949047Y-79478214D01*
X170044285Y-79525833D01*
X170091904Y-79621071D01*
X170091904Y-80144880D01*
X151682380Y-116945714D02*
X151682380Y-116412380D01*
X152682380Y-116945714D01*
X152682380Y-116412380D01*
X152110952Y-115993333D02*
X152063333Y-116069523D01*
X152015714Y-116107619D01*
X151920476Y-116145714D01*
X151872857Y-116145714D01*
X151777619Y-116107619D01*
X151730000Y-116069523D01*
X151682380Y-115993333D01*
X151682380Y-115840952D01*
X151730000Y-115764761D01*
X151777619Y-115726666D01*
X151872857Y-115688571D01*
X151920476Y-115688571D01*
X152015714Y-115726666D01*
X152063333Y-115764761D01*
X152110952Y-115840952D01*
X152110952Y-115993333D01*
X152158571Y-116069523D01*
X152206190Y-116107619D01*
X152301428Y-116145714D01*
X152491904Y-116145714D01*
X152587142Y-116107619D01*
X152634761Y-116069523D01*
X152682380Y-115993333D01*
X152682380Y-115840952D01*
X152634761Y-115764761D01*
X152587142Y-115726666D01*
X152491904Y-115688571D01*
X152301428Y-115688571D01*
X152206190Y-115726666D01*
X152158571Y-115764761D01*
X152110952Y-115840952D01*
X151682380Y-115193333D02*
X151682380Y-115117142D01*
X151730000Y-115040952D01*
X151777619Y-115002857D01*
X151872857Y-114964761D01*
X152063333Y-114926666D01*
X152301428Y-114926666D01*
X152491904Y-114964761D01*
X152587142Y-115002857D01*
X152634761Y-115040952D01*
X152682380Y-115117142D01*
X152682380Y-115193333D01*
X152634761Y-115269523D01*
X152587142Y-115307619D01*
X152491904Y-115345714D01*
X152301428Y-115383809D01*
X152063333Y-115383809D01*
X151872857Y-115345714D01*
X151777619Y-115307619D01*
X151730000Y-115269523D01*
X151682380Y-115193333D01*
X152301428Y-114583809D02*
X152301428Y-113974285D01*
X152587142Y-113136190D02*
X152634761Y-113174285D01*
X152682380Y-113288571D01*
X152682380Y-113364761D01*
X152634761Y-113479047D01*
X152539523Y-113555238D01*
X152444285Y-113593333D01*
X152253809Y-113631428D01*
X152110952Y-113631428D01*
X151920476Y-113593333D01*
X151825238Y-113555238D01*
X151730000Y-113479047D01*
X151682380Y-113364761D01*
X151682380Y-113288571D01*
X151730000Y-113174285D01*
X151777619Y-113136190D01*
X152682380Y-112793333D02*
X151682380Y-112793333D01*
X151682380Y-112488571D01*
X151730000Y-112412380D01*
X151777619Y-112374285D01*
X151872857Y-112336190D01*
X152015714Y-112336190D01*
X152110952Y-112374285D01*
X152158571Y-112412380D01*
X152206190Y-112488571D01*
X152206190Y-112793333D01*
X152682380Y-111993333D02*
X151682380Y-111993333D01*
X152396666Y-111726666D01*
X151682380Y-111460000D01*
X152682380Y-111460000D01*
X152301428Y-110469523D02*
X152301428Y-109860000D01*
X151682380Y-108983809D02*
X152682380Y-108717142D01*
X151682380Y-108450476D01*
X152634761Y-107879047D02*
X152682380Y-107955238D01*
X152682380Y-108107619D01*
X152634761Y-108183809D01*
X152539523Y-108221904D01*
X152158571Y-108221904D01*
X152063333Y-108183809D01*
X152015714Y-108107619D01*
X152015714Y-107955238D01*
X152063333Y-107879047D01*
X152158571Y-107840952D01*
X152253809Y-107840952D01*
X152349047Y-108221904D01*
X152682380Y-107498095D02*
X152015714Y-107498095D01*
X152206190Y-107498095D02*
X152110952Y-107460000D01*
X152063333Y-107421904D01*
X152015714Y-107345714D01*
X152015714Y-107269523D01*
X152634761Y-107040952D02*
X152682380Y-106964761D01*
X152682380Y-106812380D01*
X152634761Y-106736190D01*
X152539523Y-106698095D01*
X152491904Y-106698095D01*
X152396666Y-106736190D01*
X152349047Y-106812380D01*
X152349047Y-106926666D01*
X152301428Y-107002857D01*
X152206190Y-107040952D01*
X152158571Y-107040952D01*
X152063333Y-107002857D01*
X152015714Y-106926666D01*
X152015714Y-106812380D01*
X152063333Y-106736190D01*
X152682380Y-106355238D02*
X152015714Y-106355238D01*
X151682380Y-106355238D02*
X151730000Y-106393333D01*
X151777619Y-106355238D01*
X151730000Y-106317142D01*
X151682380Y-106355238D01*
X151777619Y-106355238D01*
X152682380Y-105860000D02*
X152634761Y-105936190D01*
X152587142Y-105974285D01*
X152491904Y-106012380D01*
X152206190Y-106012380D01*
X152110952Y-105974285D01*
X152063333Y-105936190D01*
X152015714Y-105860000D01*
X152015714Y-105745714D01*
X152063333Y-105669523D01*
X152110952Y-105631428D01*
X152206190Y-105593333D01*
X152491904Y-105593333D01*
X152587142Y-105631428D01*
X152634761Y-105669523D01*
X152682380Y-105745714D01*
X152682380Y-105860000D01*
X152015714Y-105250476D02*
X152682380Y-105250476D01*
X152110952Y-105250476D02*
X152063333Y-105212380D01*
X152015714Y-105136190D01*
X152015714Y-105021904D01*
X152063333Y-104945714D01*
X152158571Y-104907619D01*
X152682380Y-104907619D01*
X152682380Y-103498095D02*
X152682380Y-103955238D01*
X152682380Y-103726666D02*
X151682380Y-103726666D01*
X151825238Y-103802857D01*
X151920476Y-103879047D01*
X151968095Y-103955238D01*
X152587142Y-103155238D02*
X152634761Y-103117142D01*
X152682380Y-103155238D01*
X152634761Y-103193333D01*
X152587142Y-103155238D01*
X152682380Y-103155238D01*
X152682380Y-102355238D02*
X152682380Y-102812380D01*
X152682380Y-102583809D02*
X151682380Y-102583809D01*
X151825238Y-102660000D01*
X151920476Y-102736190D01*
X151968095Y-102812380D01*
X154673333Y-116640952D02*
X154625714Y-116679047D01*
X154482857Y-116755238D01*
X154387619Y-116793333D01*
X154244761Y-116831428D01*
X154006666Y-116869523D01*
X153816190Y-116869523D01*
X153578095Y-116831428D01*
X153435238Y-116793333D01*
X153340000Y-116755238D01*
X153197142Y-116679047D01*
X153149523Y-116640952D01*
X154197142Y-115879047D02*
X154244761Y-115917142D01*
X154292380Y-116031428D01*
X154292380Y-116107619D01*
X154244761Y-116221904D01*
X154149523Y-116298095D01*
X154054285Y-116336190D01*
X153863809Y-116374285D01*
X153720952Y-116374285D01*
X153530476Y-116336190D01*
X153435238Y-116298095D01*
X153340000Y-116221904D01*
X153292380Y-116107619D01*
X153292380Y-116031428D01*
X153340000Y-115917142D01*
X153387619Y-115879047D01*
X154673333Y-115612380D02*
X154625714Y-115574285D01*
X154482857Y-115498095D01*
X154387619Y-115460000D01*
X154244761Y-115421904D01*
X154006666Y-115383809D01*
X153816190Y-115383809D01*
X153578095Y-115421904D01*
X153435238Y-115460000D01*
X153340000Y-115498095D01*
X153197142Y-115574285D01*
X153149523Y-115612380D01*
X153387619Y-114431428D02*
X153340000Y-114393333D01*
X153292380Y-114317142D01*
X153292380Y-114126666D01*
X153340000Y-114050476D01*
X153387619Y-114012380D01*
X153482857Y-113974285D01*
X153578095Y-113974285D01*
X153720952Y-114012380D01*
X154292380Y-114469523D01*
X154292380Y-113974285D01*
X153292380Y-113479047D02*
X153292380Y-113402857D01*
X153340000Y-113326666D01*
X153387619Y-113288571D01*
X153482857Y-113250476D01*
X153673333Y-113212380D01*
X153911428Y-113212380D01*
X154101904Y-113250476D01*
X154197142Y-113288571D01*
X154244761Y-113326666D01*
X154292380Y-113402857D01*
X154292380Y-113479047D01*
X154244761Y-113555238D01*
X154197142Y-113593333D01*
X154101904Y-113631428D01*
X153911428Y-113669523D01*
X153673333Y-113669523D01*
X153482857Y-113631428D01*
X153387619Y-113593333D01*
X153340000Y-113555238D01*
X153292380Y-113479047D01*
X153387619Y-112907619D02*
X153340000Y-112869523D01*
X153292380Y-112793333D01*
X153292380Y-112602857D01*
X153340000Y-112526666D01*
X153387619Y-112488571D01*
X153482857Y-112450476D01*
X153578095Y-112450476D01*
X153720952Y-112488571D01*
X154292380Y-112945714D01*
X154292380Y-112450476D01*
X153292380Y-111726666D02*
X153292380Y-112107619D01*
X153768571Y-112145714D01*
X153720952Y-112107619D01*
X153673333Y-112031428D01*
X153673333Y-111840952D01*
X153720952Y-111764761D01*
X153768571Y-111726666D01*
X153863809Y-111688571D01*
X154101904Y-111688571D01*
X154197142Y-111726666D01*
X154244761Y-111764761D01*
X154292380Y-111840952D01*
X154292380Y-112031428D01*
X154244761Y-112107619D01*
X154197142Y-112145714D01*
X154244761Y-110774285D02*
X154292380Y-110660000D01*
X154292380Y-110469523D01*
X154244761Y-110393333D01*
X154197142Y-110355238D01*
X154101904Y-110317142D01*
X154006666Y-110317142D01*
X153911428Y-110355238D01*
X153863809Y-110393333D01*
X153816190Y-110469523D01*
X153768571Y-110621904D01*
X153720952Y-110698095D01*
X153673333Y-110736190D01*
X153578095Y-110774285D01*
X153482857Y-110774285D01*
X153387619Y-110736190D01*
X153340000Y-110698095D01*
X153292380Y-110621904D01*
X153292380Y-110431428D01*
X153340000Y-110317142D01*
X154244761Y-109669523D02*
X154292380Y-109745714D01*
X154292380Y-109898095D01*
X154244761Y-109974285D01*
X154149523Y-110012380D01*
X153768571Y-110012380D01*
X153673333Y-109974285D01*
X153625714Y-109898095D01*
X153625714Y-109745714D01*
X153673333Y-109669523D01*
X153768571Y-109631428D01*
X153863809Y-109631428D01*
X153959047Y-110012380D01*
X154292380Y-109288571D02*
X153625714Y-109288571D01*
X153816190Y-109288571D02*
X153720952Y-109250476D01*
X153673333Y-109212380D01*
X153625714Y-109136190D01*
X153625714Y-109060000D01*
X153625714Y-108450476D02*
X154435238Y-108450476D01*
X154530476Y-108488571D01*
X154578095Y-108526666D01*
X154625714Y-108602857D01*
X154625714Y-108717142D01*
X154578095Y-108793333D01*
X154244761Y-108450476D02*
X154292380Y-108526666D01*
X154292380Y-108679047D01*
X154244761Y-108755238D01*
X154197142Y-108793333D01*
X154101904Y-108831428D01*
X153816190Y-108831428D01*
X153720952Y-108793333D01*
X153673333Y-108755238D01*
X153625714Y-108679047D01*
X153625714Y-108526666D01*
X153673333Y-108450476D01*
X154244761Y-107764761D02*
X154292380Y-107840952D01*
X154292380Y-107993333D01*
X154244761Y-108069523D01*
X154149523Y-108107619D01*
X153768571Y-108107619D01*
X153673333Y-108069523D01*
X153625714Y-107993333D01*
X153625714Y-107840952D01*
X153673333Y-107764761D01*
X153768571Y-107726666D01*
X153863809Y-107726666D01*
X153959047Y-108107619D01*
X153625714Y-107460000D02*
X154292380Y-107269523D01*
X153625714Y-107079047D02*
X154292380Y-107269523D01*
X154530476Y-107345714D01*
X154578095Y-107383809D01*
X154625714Y-107460000D01*
X154292380Y-106164761D02*
X153292380Y-106164761D01*
X154292380Y-105707619D02*
X153720952Y-106050476D01*
X153292380Y-105707619D02*
X153863809Y-106164761D01*
X154292380Y-105364761D02*
X153625714Y-105364761D01*
X153292380Y-105364761D02*
X153340000Y-105402857D01*
X153387619Y-105364761D01*
X153340000Y-105326666D01*
X153292380Y-105364761D01*
X153387619Y-105364761D01*
X154244761Y-105021904D02*
X154292380Y-104945714D01*
X154292380Y-104793333D01*
X154244761Y-104717142D01*
X154149523Y-104679047D01*
X154101904Y-104679047D01*
X154006666Y-104717142D01*
X153959047Y-104793333D01*
X153959047Y-104907619D01*
X153911428Y-104983809D01*
X153816190Y-105021904D01*
X153768571Y-105021904D01*
X153673333Y-104983809D01*
X153625714Y-104907619D01*
X153625714Y-104793333D01*
X153673333Y-104717142D01*
X154244761Y-104031428D02*
X154292380Y-104107619D01*
X154292380Y-104260000D01*
X154244761Y-104336190D01*
X154149523Y-104374285D01*
X153768571Y-104374285D01*
X153673333Y-104336190D01*
X153625714Y-104260000D01*
X153625714Y-104107619D01*
X153673333Y-104031428D01*
X153768571Y-103993333D01*
X153863809Y-103993333D01*
X153959047Y-104374285D01*
X154292380Y-103536190D02*
X154244761Y-103612380D01*
X154149523Y-103650476D01*
X153292380Y-103650476D01*
X154244761Y-102926666D02*
X154292380Y-103002857D01*
X154292380Y-103155238D01*
X154244761Y-103231428D01*
X154149523Y-103269523D01*
X153768571Y-103269523D01*
X153673333Y-103231428D01*
X153625714Y-103155238D01*
X153625714Y-103002857D01*
X153673333Y-102926666D01*
X153768571Y-102888571D01*
X153863809Y-102888571D01*
X153959047Y-103269523D01*
X153625714Y-102621904D02*
X154292380Y-102431428D01*
X153625714Y-102240952D01*
X222258214Y-122324761D02*
X222401071Y-122372380D01*
X222639166Y-122372380D01*
X222734404Y-122324761D01*
X222782023Y-122277142D01*
X222829642Y-122181904D01*
X222829642Y-122086666D01*
X222782023Y-121991428D01*
X222734404Y-121943809D01*
X222639166Y-121896190D01*
X222448690Y-121848571D01*
X222353452Y-121800952D01*
X222305833Y-121753333D01*
X222258214Y-121658095D01*
X222258214Y-121562857D01*
X222305833Y-121467619D01*
X222353452Y-121420000D01*
X222448690Y-121372380D01*
X222686785Y-121372380D01*
X222829642Y-121420000D01*
X223258214Y-122372380D02*
X223258214Y-121372380D01*
X223829642Y-122372380D02*
X223401071Y-121800952D01*
X223829642Y-121372380D02*
X223258214Y-121943809D01*
X224782023Y-122372380D02*
X224210595Y-122372380D01*
X224496309Y-122372380D02*
X224496309Y-121372380D01*
X224401071Y-121515238D01*
X224305833Y-121610476D01*
X224210595Y-121658095D01*
X225401071Y-121372380D02*
X225496309Y-121372380D01*
X225591547Y-121420000D01*
X225639166Y-121467619D01*
X225686785Y-121562857D01*
X225734404Y-121753333D01*
X225734404Y-121991428D01*
X225686785Y-122181904D01*
X225639166Y-122277142D01*
X225591547Y-122324761D01*
X225496309Y-122372380D01*
X225401071Y-122372380D01*
X225305833Y-122324761D01*
X225258214Y-122277142D01*
X225210595Y-122181904D01*
X225162976Y-121991428D01*
X225162976Y-121753333D01*
X225210595Y-121562857D01*
X225258214Y-121467619D01*
X225305833Y-121420000D01*
X225401071Y-121372380D01*
X226591547Y-121372380D02*
X226401071Y-121372380D01*
X226305833Y-121420000D01*
X226258214Y-121467619D01*
X226162976Y-121610476D01*
X226115357Y-121800952D01*
X226115357Y-122181904D01*
X226162976Y-122277142D01*
X226210595Y-122324761D01*
X226305833Y-122372380D01*
X226496309Y-122372380D01*
X226591547Y-122324761D01*
X226639166Y-122277142D01*
X226686785Y-122181904D01*
X226686785Y-121943809D01*
X226639166Y-121848571D01*
X226591547Y-121800952D01*
X226496309Y-121753333D01*
X226305833Y-121753333D01*
X226210595Y-121800952D01*
X226162976Y-121848571D01*
X226115357Y-121943809D01*
X160480952Y-84542380D02*
X160480952Y-85256666D01*
X160433333Y-85399523D01*
X160338095Y-85494761D01*
X160195238Y-85542380D01*
X160100000Y-85542380D01*
X161433333Y-85542380D02*
X160957142Y-85542380D01*
X160957142Y-84542380D01*
X162338095Y-85447142D02*
X162290476Y-85494761D01*
X162147619Y-85542380D01*
X162052380Y-85542380D01*
X161909523Y-85494761D01*
X161814285Y-85399523D01*
X161766666Y-85304285D01*
X161719047Y-85113809D01*
X161719047Y-84970952D01*
X161766666Y-84780476D01*
X161814285Y-84685238D01*
X161909523Y-84590000D01*
X162052380Y-84542380D01*
X162147619Y-84542380D01*
X162290476Y-84590000D01*
X162338095Y-84637619D01*
X163052380Y-84542380D02*
X163052380Y-85256666D01*
X163004761Y-85399523D01*
X162909523Y-85494761D01*
X162766666Y-85542380D01*
X162671428Y-85542380D01*
X164004761Y-85542380D02*
X163528571Y-85542380D01*
X163528571Y-84542380D01*
X164909523Y-85447142D02*
X164861904Y-85494761D01*
X164719047Y-85542380D01*
X164623809Y-85542380D01*
X164480952Y-85494761D01*
X164385714Y-85399523D01*
X164338095Y-85304285D01*
X164290476Y-85113809D01*
X164290476Y-84970952D01*
X164338095Y-84780476D01*
X164385714Y-84685238D01*
X164480952Y-84590000D01*
X164623809Y-84542380D01*
X164719047Y-84542380D01*
X164861904Y-84590000D01*
X164909523Y-84637619D01*
X165623809Y-84542380D02*
X165623809Y-85256666D01*
X165576190Y-85399523D01*
X165480952Y-85494761D01*
X165338095Y-85542380D01*
X165242857Y-85542380D01*
X166576190Y-85542380D02*
X166100000Y-85542380D01*
X166100000Y-84542380D01*
X167480952Y-85447142D02*
X167433333Y-85494761D01*
X167290476Y-85542380D01*
X167195238Y-85542380D01*
X167052380Y-85494761D01*
X166957142Y-85399523D01*
X166909523Y-85304285D01*
X166861904Y-85113809D01*
X166861904Y-84970952D01*
X166909523Y-84780476D01*
X166957142Y-84685238D01*
X167052380Y-84590000D01*
X167195238Y-84542380D01*
X167290476Y-84542380D01*
X167433333Y-84590000D01*
X167480952Y-84637619D01*
X168195238Y-84542380D02*
X168195238Y-85256666D01*
X168147619Y-85399523D01*
X168052380Y-85494761D01*
X167909523Y-85542380D01*
X167814285Y-85542380D01*
X169147619Y-85542380D02*
X168671428Y-85542380D01*
X168671428Y-84542380D01*
X170052380Y-85447142D02*
X170004761Y-85494761D01*
X169861904Y-85542380D01*
X169766666Y-85542380D01*
X169623809Y-85494761D01*
X169528571Y-85399523D01*
X169480952Y-85304285D01*
X169433333Y-85113809D01*
X169433333Y-84970952D01*
X169480952Y-84780476D01*
X169528571Y-84685238D01*
X169623809Y-84590000D01*
X169766666Y-84542380D01*
X169861904Y-84542380D01*
X170004761Y-84590000D01*
X170052380Y-84637619D01*
X156718095Y-90257380D02*
X156718095Y-91066904D01*
X156765714Y-91162142D01*
X156813333Y-91209761D01*
X156908571Y-91257380D01*
X157099047Y-91257380D01*
X157194285Y-91209761D01*
X157241904Y-91162142D01*
X157289523Y-91066904D01*
X157289523Y-90257380D01*
X157670476Y-90257380D02*
X158337142Y-90257380D01*
X157908571Y-91257380D01*
X165069613Y-90257380D02*
X165669613Y-90257380D01*
X165158898Y-91257380D01*
X166356517Y-90590714D02*
X166273184Y-91257380D01*
X166189851Y-90209761D02*
X165886279Y-90924047D01*
X166443422Y-90924047D01*
X166737470Y-90971666D02*
X167166041Y-90971666D01*
X166616041Y-91257380D02*
X167041041Y-90257380D01*
X167216041Y-91257380D01*
X167516041Y-91257380D02*
X167641041Y-90257380D01*
X167581517Y-90733571D02*
X168095803Y-90733571D01*
X168030327Y-91257380D02*
X168155327Y-90257380D01*
X168985089Y-91162142D02*
X168936279Y-91209761D01*
X168801755Y-91257380D01*
X168716041Y-91257380D01*
X168593422Y-91209761D01*
X168519613Y-91114523D01*
X168488660Y-91019285D01*
X168469613Y-90828809D01*
X168487470Y-90685952D01*
X168554136Y-90495476D01*
X168608898Y-90400238D01*
X168706517Y-90305000D01*
X168841041Y-90257380D01*
X168926755Y-90257380D01*
X169049375Y-90305000D01*
X169086279Y-90352619D01*
X169355327Y-90257380D02*
X169869613Y-90257380D01*
X169487470Y-91257380D02*
X169612470Y-90257380D01*
X170083898Y-90257380D02*
X170641041Y-90257380D01*
X170293422Y-90638333D01*
X170421994Y-90638333D01*
X170501755Y-90685952D01*
X170538660Y-90733571D01*
X170569613Y-90828809D01*
X170539851Y-91066904D01*
X170485089Y-91162142D01*
X170436279Y-91209761D01*
X170344613Y-91257380D01*
X170087470Y-91257380D01*
X170007708Y-91209761D01*
X169970803Y-91162142D01*
X170971994Y-90352619D02*
X171020803Y-90305000D01*
X171112470Y-90257380D01*
X171326755Y-90257380D01*
X171406517Y-90305000D01*
X171443422Y-90352619D01*
X171474375Y-90447857D01*
X171462470Y-90543095D01*
X171401755Y-90685952D01*
X170816041Y-91257380D01*
X171373184Y-91257380D01*
X182118095Y-100417380D02*
X182118095Y-101226904D01*
X182165714Y-101322142D01*
X182213333Y-101369761D01*
X182308571Y-101417380D01*
X182499047Y-101417380D01*
X182594285Y-101369761D01*
X182641904Y-101322142D01*
X182689523Y-101226904D01*
X182689523Y-100417380D01*
X183594285Y-100750714D02*
X183594285Y-101417380D01*
X183356190Y-100369761D02*
X183118095Y-101084047D01*
X183737142Y-101084047D01*
X192263541Y-100417380D02*
X192863541Y-100417380D01*
X192352827Y-101417380D01*
X193550446Y-100750714D02*
X193467113Y-101417380D01*
X193383779Y-100369761D02*
X193080208Y-101084047D01*
X193637351Y-101084047D01*
X193931398Y-101131666D02*
X194359970Y-101131666D01*
X193809970Y-101417380D02*
X194234970Y-100417380D01*
X194409970Y-101417380D01*
X194709970Y-101417380D02*
X194834970Y-100417380D01*
X194775446Y-100893571D02*
X195289732Y-100893571D01*
X195224255Y-101417380D02*
X195349255Y-100417380D01*
X196179017Y-101322142D02*
X196130208Y-101369761D01*
X195995684Y-101417380D01*
X195909970Y-101417380D01*
X195787351Y-101369761D01*
X195713541Y-101274523D01*
X195682589Y-101179285D01*
X195663541Y-100988809D01*
X195681398Y-100845952D01*
X195748065Y-100655476D01*
X195802827Y-100560238D01*
X195900446Y-100465000D01*
X196034970Y-100417380D01*
X196120684Y-100417380D01*
X196243303Y-100465000D01*
X196280208Y-100512619D01*
X196549255Y-100417380D02*
X197063541Y-100417380D01*
X196681398Y-101417380D02*
X196806398Y-100417380D01*
X197709970Y-101417380D02*
X197195684Y-101417380D01*
X197452827Y-101417380D02*
X197577827Y-100417380D01*
X197474255Y-100560238D01*
X197376636Y-100655476D01*
X197284970Y-100703095D01*
X198134970Y-100417380D02*
X198734970Y-100417380D01*
X198224255Y-101417380D01*
X199421875Y-100750714D02*
X199338541Y-101417380D01*
X199255208Y-100369761D02*
X198951636Y-101084047D01*
X199508779Y-101084047D01*
X136675833Y-88939642D02*
X136628214Y-88987261D01*
X136485357Y-89034880D01*
X136390119Y-89034880D01*
X136247261Y-88987261D01*
X136152023Y-88892023D01*
X136104404Y-88796785D01*
X136056785Y-88606309D01*
X136056785Y-88463452D01*
X136104404Y-88272976D01*
X136152023Y-88177738D01*
X136247261Y-88082500D01*
X136390119Y-88034880D01*
X136485357Y-88034880D01*
X136628214Y-88082500D01*
X136675833Y-88130119D01*
X137152023Y-89034880D02*
X137342500Y-89034880D01*
X137437738Y-88987261D01*
X137485357Y-88939642D01*
X137580595Y-88796785D01*
X137628214Y-88606309D01*
X137628214Y-88225357D01*
X137580595Y-88130119D01*
X137532976Y-88082500D01*
X137437738Y-88034880D01*
X137247261Y-88034880D01*
X137152023Y-88082500D01*
X137104404Y-88130119D01*
X137056785Y-88225357D01*
X137056785Y-88463452D01*
X137104404Y-88558690D01*
X137152023Y-88606309D01*
X137247261Y-88653928D01*
X137437738Y-88653928D01*
X137532976Y-88606309D01*
X137580595Y-88558690D01*
X137628214Y-88463452D01*
X145871755Y-88034880D02*
X145957470Y-88034880D01*
X146037232Y-88082500D01*
X146074136Y-88130119D01*
X146105089Y-88225357D01*
X146124136Y-88415833D01*
X146094375Y-88653928D01*
X146027708Y-88844404D01*
X145972946Y-88939642D01*
X145924136Y-88987261D01*
X145832470Y-89034880D01*
X145746755Y-89034880D01*
X145666994Y-88987261D01*
X145630089Y-88939642D01*
X145599136Y-88844404D01*
X145580089Y-88653928D01*
X145609851Y-88415833D01*
X145676517Y-88225357D01*
X145731279Y-88130119D01*
X145780089Y-88082500D01*
X145871755Y-88034880D01*
X146444375Y-88939642D02*
X146481279Y-88987261D01*
X146432470Y-89034880D01*
X146395565Y-88987261D01*
X146444375Y-88939642D01*
X146432470Y-89034880D01*
X147332470Y-89034880D02*
X146818184Y-89034880D01*
X147075327Y-89034880D02*
X147200327Y-88034880D01*
X147096755Y-88177738D01*
X146999136Y-88272976D01*
X146907470Y-88320595D01*
X148187232Y-88368214D02*
X148103898Y-89034880D01*
X147801517Y-88368214D02*
X147736041Y-88892023D01*
X147766994Y-88987261D01*
X147846755Y-89034880D01*
X147975327Y-89034880D01*
X148066994Y-88987261D01*
X148115803Y-88939642D01*
X148897946Y-88511071D02*
X148597946Y-88511071D01*
X148532470Y-89034880D02*
X148657470Y-88034880D01*
X149086041Y-88034880D01*
X171394523Y-122054880D02*
X171061190Y-121578690D01*
X170823095Y-122054880D02*
X170823095Y-121054880D01*
X171204047Y-121054880D01*
X171299285Y-121102500D01*
X171346904Y-121150119D01*
X171394523Y-121245357D01*
X171394523Y-121388214D01*
X171346904Y-121483452D01*
X171299285Y-121531071D01*
X171204047Y-121578690D01*
X170823095Y-121578690D01*
X171823095Y-122054880D02*
X171823095Y-121054880D01*
X172394523Y-122054880D01*
X172394523Y-121054880D01*
X172823095Y-121150119D02*
X172870714Y-121102500D01*
X172965952Y-121054880D01*
X173204047Y-121054880D01*
X173299285Y-121102500D01*
X173346904Y-121150119D01*
X173394523Y-121245357D01*
X173394523Y-121340595D01*
X173346904Y-121483452D01*
X172775476Y-122054880D01*
X173394523Y-122054880D01*
X171330803Y-122658214D02*
X171247470Y-123324880D01*
X171187946Y-122277261D02*
X170908184Y-122991547D01*
X171403422Y-122991547D01*
X171678422Y-123229642D02*
X171710565Y-123277261D01*
X171666517Y-123324880D01*
X171634375Y-123277261D01*
X171678422Y-123229642D01*
X171666517Y-123324880D01*
X172096279Y-122324880D02*
X172629613Y-122324880D01*
X172161755Y-123324880D01*
X172809375Y-123324880D02*
X172934375Y-122324880D01*
X172933184Y-122943928D02*
X173114136Y-123324880D01*
X173197470Y-122658214D02*
X172845089Y-123039166D01*
X181332142Y-112561666D02*
X181379761Y-112609285D01*
X181427380Y-112752142D01*
X181427380Y-112847380D01*
X181379761Y-112990238D01*
X181284523Y-113085476D01*
X181189285Y-113133095D01*
X180998809Y-113180714D01*
X180855952Y-113180714D01*
X180665476Y-113133095D01*
X180570238Y-113085476D01*
X180475000Y-112990238D01*
X180427380Y-112847380D01*
X180427380Y-112752142D01*
X180475000Y-112609285D01*
X180522619Y-112561666D01*
X180427380Y-112228333D02*
X180427380Y-111609285D01*
X180808333Y-111942619D01*
X180808333Y-111799761D01*
X180855952Y-111704523D01*
X180903571Y-111656904D01*
X180998809Y-111609285D01*
X181236904Y-111609285D01*
X181332142Y-111656904D01*
X181379761Y-111704523D01*
X181427380Y-111799761D01*
X181427380Y-112085476D01*
X181379761Y-112180714D01*
X181332142Y-112228333D01*
X181697380Y-113843244D02*
X181697380Y-113757529D01*
X181745000Y-113677767D01*
X181792619Y-113640863D01*
X181887857Y-113609910D01*
X182078333Y-113590863D01*
X182316428Y-113620625D01*
X182506904Y-113687291D01*
X182602142Y-113742053D01*
X182649761Y-113790863D01*
X182697380Y-113882529D01*
X182697380Y-113968244D01*
X182649761Y-114048005D01*
X182602142Y-114084910D01*
X182506904Y-114115863D01*
X182316428Y-114134910D01*
X182078333Y-114105148D01*
X181887857Y-114038482D01*
X181792619Y-113983720D01*
X181745000Y-113934910D01*
X181697380Y-113843244D01*
X182602142Y-113270625D02*
X182649761Y-113233720D01*
X182697380Y-113282529D01*
X182649761Y-113319434D01*
X182602142Y-113270625D01*
X182697380Y-113282529D01*
X182697380Y-112382529D02*
X182697380Y-112896815D01*
X182697380Y-112639672D02*
X181697380Y-112514672D01*
X181840238Y-112618244D01*
X181935476Y-112715863D01*
X181983095Y-112807529D01*
X182030714Y-111527767D02*
X182697380Y-111611101D01*
X182030714Y-111913482D02*
X182554523Y-111978958D01*
X182649761Y-111948005D01*
X182697380Y-111868244D01*
X182697380Y-111739672D01*
X182649761Y-111648005D01*
X182602142Y-111599196D01*
X182173571Y-110817053D02*
X182173571Y-111117053D01*
X182697380Y-111182529D02*
X181697380Y-111057529D01*
X181697380Y-110628958D01*
X127342857Y-123732857D02*
X126657142Y-123732857D01*
X127000000Y-123732857D02*
X127000000Y-122532857D01*
X126885714Y-122704285D01*
X126771428Y-122818571D01*
X126657142Y-122875714D01*
X185928095Y-101687380D02*
X185928095Y-102496904D01*
X185975714Y-102592142D01*
X186023333Y-102639761D01*
X186118571Y-102687380D01*
X186309047Y-102687380D01*
X186404285Y-102639761D01*
X186451904Y-102592142D01*
X186499523Y-102496904D01*
X186499523Y-101687380D01*
X186880476Y-101687380D02*
X187499523Y-101687380D01*
X187166190Y-102068333D01*
X187309047Y-102068333D01*
X187404285Y-102115952D01*
X187451904Y-102163571D01*
X187499523Y-102258809D01*
X187499523Y-102496904D01*
X187451904Y-102592142D01*
X187404285Y-102639761D01*
X187309047Y-102687380D01*
X187023333Y-102687380D01*
X186928095Y-102639761D01*
X186880476Y-102592142D01*
X198635327Y-102401666D02*
X199063898Y-102401666D01*
X198513898Y-102687380D02*
X198938898Y-101687380D01*
X199113898Y-102687380D01*
X199376994Y-102639761D02*
X199499613Y-102687380D01*
X199713898Y-102687380D01*
X199805565Y-102639761D01*
X199854375Y-102592142D01*
X199909136Y-102496904D01*
X199921041Y-102401666D01*
X199890089Y-102306428D01*
X199853184Y-102258809D01*
X199773422Y-102211190D01*
X199607946Y-102163571D01*
X199528184Y-102115952D01*
X199491279Y-102068333D01*
X199460327Y-101973095D01*
X199472232Y-101877857D01*
X199526994Y-101782619D01*
X199575803Y-101735000D01*
X199667470Y-101687380D01*
X199881755Y-101687380D01*
X200004375Y-101735000D01*
X200781755Y-101687380D02*
X200610327Y-101687380D01*
X200518660Y-101735000D01*
X200469851Y-101782619D01*
X200366279Y-101925476D01*
X200299613Y-102115952D01*
X200251994Y-102496904D01*
X200282946Y-102592142D01*
X200319851Y-102639761D01*
X200399613Y-102687380D01*
X200571041Y-102687380D01*
X200662708Y-102639761D01*
X200711517Y-102592142D01*
X200766279Y-102496904D01*
X200796041Y-102258809D01*
X200765089Y-102163571D01*
X200728184Y-102115952D01*
X200648422Y-102068333D01*
X200476994Y-102068333D01*
X200385327Y-102115952D01*
X200336517Y-102163571D01*
X200281755Y-102258809D01*
X201654375Y-102592142D02*
X201605565Y-102639761D01*
X201471041Y-102687380D01*
X201385327Y-102687380D01*
X201262708Y-102639761D01*
X201188898Y-102544523D01*
X201157946Y-102449285D01*
X201138898Y-102258809D01*
X201156755Y-102115952D01*
X201223422Y-101925476D01*
X201278184Y-101830238D01*
X201375803Y-101735000D01*
X201510327Y-101687380D01*
X201596041Y-101687380D01*
X201718660Y-101735000D01*
X201755565Y-101782619D01*
X202497232Y-102020714D02*
X202413898Y-102687380D01*
X202330565Y-101639761D02*
X202026994Y-102354047D01*
X202584136Y-102354047D01*
X203181755Y-101687380D02*
X203267470Y-101687380D01*
X203347232Y-101735000D01*
X203384136Y-101782619D01*
X203415089Y-101877857D01*
X203434136Y-102068333D01*
X203404375Y-102306428D01*
X203337708Y-102496904D01*
X203282946Y-102592142D01*
X203234136Y-102639761D01*
X203142470Y-102687380D01*
X203056755Y-102687380D01*
X202976994Y-102639761D01*
X202940089Y-102592142D01*
X202909136Y-102496904D01*
X202890089Y-102306428D01*
X202919851Y-102068333D01*
X202986517Y-101877857D01*
X203041279Y-101782619D01*
X203090089Y-101735000D01*
X203181755Y-101687380D01*
X204038898Y-101687380D02*
X204124613Y-101687380D01*
X204204375Y-101735000D01*
X204241279Y-101782619D01*
X204272232Y-101877857D01*
X204291279Y-102068333D01*
X204261517Y-102306428D01*
X204194851Y-102496904D01*
X204140089Y-102592142D01*
X204091279Y-102639761D01*
X203999613Y-102687380D01*
X203913898Y-102687380D01*
X203834136Y-102639761D01*
X203797232Y-102592142D01*
X203766279Y-102496904D01*
X203747232Y-102306428D01*
X203776994Y-102068333D01*
X203843660Y-101877857D01*
X203898422Y-101782619D01*
X203947232Y-101735000D01*
X204038898Y-101687380D01*
X204799613Y-102115952D02*
X204719851Y-102068333D01*
X204682946Y-102020714D01*
X204651994Y-101925476D01*
X204657946Y-101877857D01*
X204712708Y-101782619D01*
X204761517Y-101735000D01*
X204853184Y-101687380D01*
X205024613Y-101687380D01*
X205104375Y-101735000D01*
X205141279Y-101782619D01*
X205172232Y-101877857D01*
X205166279Y-101925476D01*
X205111517Y-102020714D01*
X205062708Y-102068333D01*
X204971041Y-102115952D01*
X204799613Y-102115952D01*
X204707946Y-102163571D01*
X204659136Y-102211190D01*
X204604375Y-102306428D01*
X204580565Y-102496904D01*
X204611517Y-102592142D01*
X204648422Y-102639761D01*
X204728184Y-102687380D01*
X204899613Y-102687380D01*
X204991279Y-102639761D01*
X205040089Y-102592142D01*
X205094851Y-102496904D01*
X205118660Y-102306428D01*
X205087708Y-102211190D01*
X205050803Y-102163571D01*
X204971041Y-102115952D01*
X150899880Y-97670833D02*
X151614166Y-97670833D01*
X151757023Y-97718452D01*
X151852261Y-97813690D01*
X151899880Y-97956547D01*
X151899880Y-98051785D01*
X151899880Y-97194642D02*
X150899880Y-97194642D01*
X150899880Y-96813690D01*
X150947500Y-96718452D01*
X150995119Y-96670833D01*
X151090357Y-96623214D01*
X151233214Y-96623214D01*
X151328452Y-96670833D01*
X151376071Y-96718452D01*
X151423690Y-96813690D01*
X151423690Y-97194642D01*
X150899880Y-96289880D02*
X150899880Y-95670833D01*
X151280833Y-96004166D01*
X151280833Y-95861309D01*
X151328452Y-95766071D01*
X151376071Y-95718452D01*
X151471309Y-95670833D01*
X151709404Y-95670833D01*
X151804642Y-95718452D01*
X151852261Y-95766071D01*
X151899880Y-95861309D01*
X151899880Y-96147023D01*
X151852261Y-96242261D01*
X151804642Y-96289880D01*
X158629523Y-96972380D02*
X158389047Y-96496190D01*
X158115238Y-96972380D02*
X158240238Y-95972380D01*
X158583095Y-95972380D01*
X158662857Y-96020000D01*
X158699761Y-96067619D01*
X158730714Y-96162857D01*
X158712857Y-96305714D01*
X158658095Y-96400952D01*
X158609285Y-96448571D01*
X158517619Y-96496190D01*
X158174761Y-96496190D01*
X159541428Y-96877142D02*
X159492619Y-96924761D01*
X159358095Y-96972380D01*
X159272380Y-96972380D01*
X159149761Y-96924761D01*
X159075952Y-96829523D01*
X159045000Y-96734285D01*
X159025952Y-96543809D01*
X159043809Y-96400952D01*
X159110476Y-96210476D01*
X159165238Y-96115238D01*
X159262857Y-96020000D01*
X159397380Y-95972380D01*
X159483095Y-95972380D01*
X159605714Y-96020000D01*
X159642619Y-96067619D01*
X160280714Y-96448571D02*
X160403333Y-96496190D01*
X160440238Y-96543809D01*
X160471190Y-96639047D01*
X160453333Y-96781904D01*
X160398571Y-96877142D01*
X160349761Y-96924761D01*
X160258095Y-96972380D01*
X159915238Y-96972380D01*
X160040238Y-95972380D01*
X160340238Y-95972380D01*
X160420000Y-96020000D01*
X160456904Y-96067619D01*
X160487857Y-96162857D01*
X160475952Y-96258095D01*
X160421190Y-96353333D01*
X160372380Y-96400952D01*
X160280714Y-96448571D01*
X159980714Y-96448571D01*
X161284285Y-96305714D02*
X161200952Y-96972380D01*
X160898571Y-96305714D02*
X160833095Y-96829523D01*
X160864047Y-96924761D01*
X160943809Y-96972380D01*
X161072380Y-96972380D01*
X161164047Y-96924761D01*
X161212857Y-96877142D01*
X161592619Y-96924761D02*
X161672380Y-96972380D01*
X161843809Y-96972380D01*
X161935476Y-96924761D01*
X161990238Y-96829523D01*
X161996190Y-96781904D01*
X161965238Y-96686666D01*
X161885476Y-96639047D01*
X161756904Y-96639047D01*
X161677142Y-96591428D01*
X161646190Y-96496190D01*
X161652142Y-96448571D01*
X161706904Y-96353333D01*
X161798571Y-96305714D01*
X161927142Y-96305714D01*
X162006904Y-96353333D01*
X163570000Y-96877142D02*
X163521190Y-96924761D01*
X163386666Y-96972380D01*
X163300952Y-96972380D01*
X163178333Y-96924761D01*
X163104523Y-96829523D01*
X163073571Y-96734285D01*
X163054523Y-96543809D01*
X163072380Y-96400952D01*
X163139047Y-96210476D01*
X163193809Y-96115238D01*
X163291428Y-96020000D01*
X163425952Y-95972380D01*
X163511666Y-95972380D01*
X163634285Y-96020000D01*
X163671190Y-96067619D01*
X164372380Y-96972380D02*
X163943809Y-96972380D01*
X164068809Y-95972380D01*
X164672380Y-96972380D02*
X164797380Y-95972380D01*
X165186666Y-96972380D02*
X164872380Y-96400952D01*
X165311666Y-95972380D02*
X164725952Y-96543809D01*
X166043809Y-96972380D02*
X165529523Y-96972380D01*
X165786666Y-96972380D02*
X165911666Y-95972380D01*
X165808095Y-96115238D01*
X165710476Y-96210476D01*
X165618809Y-96258095D01*
X167070000Y-96305714D02*
X167412857Y-96305714D01*
X167240238Y-95972380D02*
X167133095Y-96829523D01*
X167164047Y-96924761D01*
X167243809Y-96972380D01*
X167329523Y-96972380D01*
X167758095Y-96972380D02*
X167678333Y-96924761D01*
X167641428Y-96877142D01*
X167610476Y-96781904D01*
X167646190Y-96496190D01*
X167700952Y-96400952D01*
X167749761Y-96353333D01*
X167841428Y-96305714D01*
X167970000Y-96305714D01*
X168049761Y-96353333D01*
X168086666Y-96400952D01*
X168117619Y-96496190D01*
X168081904Y-96781904D01*
X168027142Y-96877142D01*
X167978333Y-96924761D01*
X167886666Y-96972380D01*
X167758095Y-96972380D01*
X169655714Y-96877142D02*
X169606904Y-96924761D01*
X169472380Y-96972380D01*
X169386666Y-96972380D01*
X169264047Y-96924761D01*
X169190238Y-96829523D01*
X169159285Y-96734285D01*
X169140238Y-96543809D01*
X169158095Y-96400952D01*
X169224761Y-96210476D01*
X169279523Y-96115238D01*
X169377142Y-96020000D01*
X169511666Y-95972380D01*
X169597380Y-95972380D01*
X169720000Y-96020000D01*
X169756904Y-96067619D01*
X170029523Y-96972380D02*
X170154523Y-95972380D01*
X170497380Y-95972380D01*
X170577142Y-96020000D01*
X170614047Y-96067619D01*
X170645000Y-96162857D01*
X170627142Y-96305714D01*
X170572380Y-96400952D01*
X170523571Y-96448571D01*
X170431904Y-96496190D01*
X170089047Y-96496190D01*
X171054523Y-95972380D02*
X170953333Y-96781904D01*
X170984285Y-96877142D01*
X171021190Y-96924761D01*
X171100952Y-96972380D01*
X171272380Y-96972380D01*
X171364047Y-96924761D01*
X171412857Y-96877142D01*
X171467619Y-96781904D01*
X171568809Y-95972380D01*
X177522142Y-86526666D02*
X177569761Y-86574285D01*
X177617380Y-86717142D01*
X177617380Y-86812380D01*
X177569761Y-86955238D01*
X177474523Y-87050476D01*
X177379285Y-87098095D01*
X177188809Y-87145714D01*
X177045952Y-87145714D01*
X176855476Y-87098095D01*
X176760238Y-87050476D01*
X176665000Y-86955238D01*
X176617380Y-86812380D01*
X176617380Y-86717142D01*
X176665000Y-86574285D01*
X176712619Y-86526666D01*
X176617380Y-85669523D02*
X176617380Y-85860000D01*
X176665000Y-85955238D01*
X176712619Y-86002857D01*
X176855476Y-86098095D01*
X177045952Y-86145714D01*
X177426904Y-86145714D01*
X177522142Y-86098095D01*
X177569761Y-86050476D01*
X177617380Y-85955238D01*
X177617380Y-85764761D01*
X177569761Y-85669523D01*
X177522142Y-85621904D01*
X177426904Y-85574285D01*
X177188809Y-85574285D01*
X177093571Y-85621904D01*
X177045952Y-85669523D01*
X176998333Y-85764761D01*
X176998333Y-85955238D01*
X177045952Y-86050476D01*
X177093571Y-86098095D01*
X177188809Y-86145714D01*
X176617380Y-83998244D02*
X176617380Y-83912529D01*
X176665000Y-83832767D01*
X176712619Y-83795863D01*
X176807857Y-83764910D01*
X176998333Y-83745863D01*
X177236428Y-83775625D01*
X177426904Y-83842291D01*
X177522142Y-83897053D01*
X177569761Y-83945863D01*
X177617380Y-84037529D01*
X177617380Y-84123244D01*
X177569761Y-84203005D01*
X177522142Y-84239910D01*
X177426904Y-84270863D01*
X177236428Y-84289910D01*
X176998333Y-84260148D01*
X176807857Y-84193482D01*
X176712619Y-84138720D01*
X176665000Y-84089910D01*
X176617380Y-83998244D01*
X177522142Y-83425625D02*
X177569761Y-83388720D01*
X177617380Y-83437529D01*
X177569761Y-83474434D01*
X177522142Y-83425625D01*
X177617380Y-83437529D01*
X177617380Y-82537529D02*
X177617380Y-83051815D01*
X177617380Y-82794672D02*
X176617380Y-82669672D01*
X176760238Y-82773244D01*
X176855476Y-82870863D01*
X176903095Y-82962529D01*
X176950714Y-81682767D02*
X177617380Y-81766101D01*
X176950714Y-82068482D02*
X177474523Y-82133958D01*
X177569761Y-82103005D01*
X177617380Y-82023244D01*
X177617380Y-81894672D01*
X177569761Y-81803005D01*
X177522142Y-81754196D01*
X177093571Y-80972053D02*
X177093571Y-81272053D01*
X177617380Y-81337529D02*
X176617380Y-81212529D01*
X176617380Y-80783958D01*
X127039642Y-119546666D02*
X127087261Y-119594285D01*
X127134880Y-119737142D01*
X127134880Y-119832380D01*
X127087261Y-119975238D01*
X126992023Y-120070476D01*
X126896785Y-120118095D01*
X126706309Y-120165714D01*
X126563452Y-120165714D01*
X126372976Y-120118095D01*
X126277738Y-120070476D01*
X126182500Y-119975238D01*
X126134880Y-119832380D01*
X126134880Y-119737142D01*
X126182500Y-119594285D01*
X126230119Y-119546666D01*
X126134880Y-118641904D02*
X126134880Y-119118095D01*
X126611071Y-119165714D01*
X126563452Y-119118095D01*
X126515833Y-119022857D01*
X126515833Y-118784761D01*
X126563452Y-118689523D01*
X126611071Y-118641904D01*
X126706309Y-118594285D01*
X126944404Y-118594285D01*
X127039642Y-118641904D01*
X127087261Y-118689523D01*
X127134880Y-118784761D01*
X127134880Y-119022857D01*
X127087261Y-119118095D01*
X127039642Y-119165714D01*
X126134880Y-117018244D02*
X126134880Y-116932529D01*
X126182500Y-116852767D01*
X126230119Y-116815863D01*
X126325357Y-116784910D01*
X126515833Y-116765863D01*
X126753928Y-116795625D01*
X126944404Y-116862291D01*
X127039642Y-116917053D01*
X127087261Y-116965863D01*
X127134880Y-117057529D01*
X127134880Y-117143244D01*
X127087261Y-117223005D01*
X127039642Y-117259910D01*
X126944404Y-117290863D01*
X126753928Y-117309910D01*
X126515833Y-117280148D01*
X126325357Y-117213482D01*
X126230119Y-117158720D01*
X126182500Y-117109910D01*
X126134880Y-117018244D01*
X127039642Y-116445625D02*
X127087261Y-116408720D01*
X127134880Y-116457529D01*
X127087261Y-116494434D01*
X127039642Y-116445625D01*
X127134880Y-116457529D01*
X127134880Y-115557529D02*
X127134880Y-116071815D01*
X127134880Y-115814672D02*
X126134880Y-115689672D01*
X126277738Y-115793244D01*
X126372976Y-115890863D01*
X126420595Y-115982529D01*
X126468214Y-114702767D02*
X127134880Y-114786101D01*
X126468214Y-115088482D02*
X126992023Y-115153958D01*
X127087261Y-115123005D01*
X127134880Y-115043244D01*
X127134880Y-114914672D01*
X127087261Y-114823005D01*
X127039642Y-114774196D01*
X126611071Y-113992053D02*
X126611071Y-114292053D01*
X127134880Y-114357529D02*
X126134880Y-114232529D01*
X126134880Y-113803958D01*
X177673095Y-87717380D02*
X177673095Y-88526904D01*
X177720714Y-88622142D01*
X177768333Y-88669761D01*
X177863571Y-88717380D01*
X178054047Y-88717380D01*
X178149285Y-88669761D01*
X178196904Y-88622142D01*
X178244523Y-88526904D01*
X178244523Y-87717380D01*
X179149285Y-87717380D02*
X178958809Y-87717380D01*
X178863571Y-87765000D01*
X178815952Y-87812619D01*
X178720714Y-87955476D01*
X178673095Y-88145952D01*
X178673095Y-88526904D01*
X178720714Y-88622142D01*
X178768333Y-88669761D01*
X178863571Y-88717380D01*
X179054047Y-88717380D01*
X179149285Y-88669761D01*
X179196904Y-88622142D01*
X179244523Y-88526904D01*
X179244523Y-88288809D01*
X179196904Y-88193571D01*
X179149285Y-88145952D01*
X179054047Y-88098333D01*
X178863571Y-88098333D01*
X178768333Y-88145952D01*
X178720714Y-88193571D01*
X178673095Y-88288809D01*
X175229613Y-88987380D02*
X175829613Y-88987380D01*
X175318898Y-89987380D01*
X176516517Y-89320714D02*
X176433184Y-89987380D01*
X176349851Y-88939761D02*
X176046279Y-89654047D01*
X176603422Y-89654047D01*
X176897470Y-89701666D02*
X177326041Y-89701666D01*
X176776041Y-89987380D02*
X177201041Y-88987380D01*
X177376041Y-89987380D01*
X177676041Y-89987380D02*
X177801041Y-88987380D01*
X177741517Y-89463571D02*
X178255803Y-89463571D01*
X178190327Y-89987380D02*
X178315327Y-88987380D01*
X179145089Y-89892142D02*
X179096279Y-89939761D01*
X178961755Y-89987380D01*
X178876041Y-89987380D01*
X178753422Y-89939761D01*
X178679613Y-89844523D01*
X178648660Y-89749285D01*
X178629613Y-89558809D01*
X178647470Y-89415952D01*
X178714136Y-89225476D01*
X178768898Y-89130238D01*
X178866517Y-89035000D01*
X179001041Y-88987380D01*
X179086755Y-88987380D01*
X179209375Y-89035000D01*
X179246279Y-89082619D01*
X179515327Y-88987380D02*
X180029613Y-88987380D01*
X179647470Y-89987380D02*
X179772470Y-88987380D01*
X180243898Y-88987380D02*
X180801041Y-88987380D01*
X180453422Y-89368333D01*
X180581994Y-89368333D01*
X180661755Y-89415952D01*
X180698660Y-89463571D01*
X180729613Y-89558809D01*
X180699851Y-89796904D01*
X180645089Y-89892142D01*
X180596279Y-89939761D01*
X180504613Y-89987380D01*
X180247470Y-89987380D01*
X180167708Y-89939761D01*
X180130803Y-89892142D01*
X181131994Y-89082619D02*
X181180803Y-89035000D01*
X181272470Y-88987380D01*
X181486755Y-88987380D01*
X181566517Y-89035000D01*
X181603422Y-89082619D01*
X181634375Y-89177857D01*
X181622470Y-89273095D01*
X181561755Y-89415952D01*
X180976041Y-89987380D01*
X181533184Y-89987380D01*
X212987023Y-121737380D02*
X212653690Y-121261190D01*
X212415595Y-121737380D02*
X212415595Y-120737380D01*
X212796547Y-120737380D01*
X212891785Y-120785000D01*
X212939404Y-120832619D01*
X212987023Y-120927857D01*
X212987023Y-121070714D01*
X212939404Y-121165952D01*
X212891785Y-121213571D01*
X212796547Y-121261190D01*
X212415595Y-121261190D01*
X213415595Y-121737380D02*
X213415595Y-120737380D01*
X213987023Y-121737380D01*
X213987023Y-120737380D01*
X214987023Y-121737380D02*
X214415595Y-121737380D01*
X214701309Y-121737380D02*
X214701309Y-120737380D01*
X214606071Y-120880238D01*
X214510833Y-120975476D01*
X214415595Y-121023095D01*
X212923303Y-122658214D02*
X212839970Y-123324880D01*
X212780446Y-122277261D02*
X212500684Y-122991547D01*
X212995922Y-122991547D01*
X213270922Y-123229642D02*
X213303065Y-123277261D01*
X213259017Y-123324880D01*
X213226875Y-123277261D01*
X213270922Y-123229642D01*
X213259017Y-123324880D01*
X213688779Y-122324880D02*
X214222113Y-122324880D01*
X213754255Y-123324880D01*
X214401875Y-123324880D02*
X214526875Y-122324880D01*
X214525684Y-122943928D02*
X214706636Y-123324880D01*
X214789970Y-122658214D02*
X214437589Y-123039166D01*
X149947380Y-87756904D02*
X150756904Y-87756904D01*
X150852142Y-87709285D01*
X150899761Y-87661666D01*
X150947380Y-87566428D01*
X150947380Y-87375952D01*
X150899761Y-87280714D01*
X150852142Y-87233095D01*
X150756904Y-87185476D01*
X149947380Y-87185476D01*
X150947380Y-86661666D02*
X150947380Y-86471190D01*
X150899761Y-86375952D01*
X150852142Y-86328333D01*
X150709285Y-86233095D01*
X150518809Y-86185476D01*
X150137857Y-86185476D01*
X150042619Y-86233095D01*
X149995000Y-86280714D01*
X149947380Y-86375952D01*
X149947380Y-86566428D01*
X149995000Y-86661666D01*
X150042619Y-86709285D01*
X150137857Y-86756904D01*
X150375952Y-86756904D01*
X150471190Y-86709285D01*
X150518809Y-86661666D01*
X150566428Y-86566428D01*
X150566428Y-86375952D01*
X150518809Y-86280714D01*
X150471190Y-86233095D01*
X150375952Y-86185476D01*
X150947380Y-85023244D02*
X149947380Y-84898244D01*
X149947380Y-84683958D01*
X149995000Y-84561339D01*
X150090238Y-84487529D01*
X150185476Y-84456577D01*
X150375952Y-84437529D01*
X150518809Y-84455386D01*
X150709285Y-84522053D01*
X150804523Y-84576815D01*
X150899761Y-84674434D01*
X150947380Y-84808958D01*
X150947380Y-85023244D01*
X150899761Y-84160148D02*
X150947380Y-84037529D01*
X150947380Y-83823244D01*
X150899761Y-83731577D01*
X150852142Y-83682767D01*
X150756904Y-83628005D01*
X150661666Y-83616101D01*
X150566428Y-83647053D01*
X150518809Y-83683958D01*
X150471190Y-83763720D01*
X150423571Y-83929196D01*
X150375952Y-84008958D01*
X150328333Y-84045863D01*
X150233095Y-84076815D01*
X150137857Y-84064910D01*
X150042619Y-84010148D01*
X149995000Y-83961339D01*
X149947380Y-83869672D01*
X149947380Y-83655386D01*
X149995000Y-83532767D01*
X150947380Y-82794672D02*
X150947380Y-83308958D01*
X150947380Y-83051815D02*
X149947380Y-82926815D01*
X150090238Y-83030386D01*
X150185476Y-83128005D01*
X150233095Y-83219672D01*
X150042619Y-82338720D02*
X149995000Y-82289910D01*
X149947380Y-82198244D01*
X149947380Y-81983958D01*
X149995000Y-81904196D01*
X150042619Y-81867291D01*
X150137857Y-81836339D01*
X150233095Y-81848244D01*
X150375952Y-81908958D01*
X150947380Y-82494672D01*
X150947380Y-81937529D01*
X149947380Y-81512529D02*
X149947380Y-80955386D01*
X150328333Y-81303005D01*
X150328333Y-81174434D01*
X150375952Y-81094672D01*
X150423571Y-81057767D01*
X150518809Y-81026815D01*
X150756904Y-81056577D01*
X150852142Y-81111339D01*
X150899761Y-81160148D01*
X150947380Y-81251815D01*
X150947380Y-81508958D01*
X150899761Y-81588720D01*
X150852142Y-81625625D01*
X149947380Y-80655386D02*
X149947380Y-80098244D01*
X150328333Y-80445863D01*
X150328333Y-80317291D01*
X150375952Y-80237529D01*
X150423571Y-80200625D01*
X150518809Y-80169672D01*
X150756904Y-80199434D01*
X150852142Y-80254196D01*
X150899761Y-80303005D01*
X150947380Y-80394672D01*
X150947380Y-80651815D01*
X150899761Y-80731577D01*
X150852142Y-80768482D01*
X131318095Y-123277380D02*
X131318095Y-124086904D01*
X131365714Y-124182142D01*
X131413333Y-124229761D01*
X131508571Y-124277380D01*
X131699047Y-124277380D01*
X131794285Y-124229761D01*
X131841904Y-124182142D01*
X131889523Y-124086904D01*
X131889523Y-123277380D01*
X132841904Y-123277380D02*
X132365714Y-123277380D01*
X132318095Y-123753571D01*
X132365714Y-123705952D01*
X132460952Y-123658333D01*
X132699047Y-123658333D01*
X132794285Y-123705952D01*
X132841904Y-123753571D01*
X132889523Y-123848809D01*
X132889523Y-124086904D01*
X132841904Y-124182142D01*
X132794285Y-124229761D01*
X132699047Y-124277380D01*
X132460952Y-124277380D01*
X132365714Y-124229761D01*
X132318095Y-124182142D01*
X141781041Y-123277380D02*
X142381041Y-123277380D01*
X141870327Y-124277380D01*
X143067946Y-123610714D02*
X142984613Y-124277380D01*
X142901279Y-123229761D02*
X142597708Y-123944047D01*
X143154851Y-123944047D01*
X143448898Y-123991666D02*
X143877470Y-123991666D01*
X143327470Y-124277380D02*
X143752470Y-123277380D01*
X143927470Y-124277380D01*
X144227470Y-124277380D02*
X144352470Y-123277380D01*
X144292946Y-123753571D02*
X144807232Y-123753571D01*
X144741755Y-124277380D02*
X144866755Y-123277380D01*
X145696517Y-124182142D02*
X145647708Y-124229761D01*
X145513184Y-124277380D01*
X145427470Y-124277380D01*
X145304851Y-124229761D01*
X145231041Y-124134523D01*
X145200089Y-124039285D01*
X145181041Y-123848809D01*
X145198898Y-123705952D01*
X145265565Y-123515476D01*
X145320327Y-123420238D01*
X145417946Y-123325000D01*
X145552470Y-123277380D01*
X145638184Y-123277380D01*
X145760803Y-123325000D01*
X145797708Y-123372619D01*
X146066755Y-123277380D02*
X146581041Y-123277380D01*
X146198898Y-124277380D02*
X146323898Y-123277380D01*
X147227470Y-124277380D02*
X146713184Y-124277380D01*
X146970327Y-124277380D02*
X147095327Y-123277380D01*
X146991755Y-123420238D01*
X146894136Y-123515476D01*
X146802470Y-123563095D01*
X147652470Y-123277380D02*
X148209613Y-123277380D01*
X147861994Y-123658333D01*
X147990565Y-123658333D01*
X148070327Y-123705952D01*
X148107232Y-123753571D01*
X148138184Y-123848809D01*
X148108422Y-124086904D01*
X148053660Y-124182142D01*
X148004851Y-124229761D01*
X147913184Y-124277380D01*
X147656041Y-124277380D01*
X147576279Y-124229761D01*
X147539375Y-124182142D01*
X148670327Y-123705952D02*
X148590565Y-123658333D01*
X148553660Y-123610714D01*
X148522708Y-123515476D01*
X148528660Y-123467857D01*
X148583422Y-123372619D01*
X148632232Y-123325000D01*
X148723898Y-123277380D01*
X148895327Y-123277380D01*
X148975089Y-123325000D01*
X149011994Y-123372619D01*
X149042946Y-123467857D01*
X149036994Y-123515476D01*
X148982232Y-123610714D01*
X148933422Y-123658333D01*
X148841755Y-123705952D01*
X148670327Y-123705952D01*
X148578660Y-123753571D01*
X148529851Y-123801190D01*
X148475089Y-123896428D01*
X148451279Y-124086904D01*
X148482232Y-124182142D01*
X148519136Y-124229761D01*
X148598898Y-124277380D01*
X148770327Y-124277380D01*
X148861994Y-124229761D01*
X148910803Y-124182142D01*
X148965565Y-124086904D01*
X148989375Y-123896428D01*
X148958422Y-123801190D01*
X148921517Y-123753571D01*
X148841755Y-123705952D01*
X156202142Y-121959642D02*
X156154523Y-122007261D01*
X156011666Y-122054880D01*
X155916428Y-122054880D01*
X155773571Y-122007261D01*
X155678333Y-121912023D01*
X155630714Y-121816785D01*
X155583095Y-121626309D01*
X155583095Y-121483452D01*
X155630714Y-121292976D01*
X155678333Y-121197738D01*
X155773571Y-121102500D01*
X155916428Y-121054880D01*
X156011666Y-121054880D01*
X156154523Y-121102500D01*
X156202142Y-121150119D01*
X157154523Y-122054880D02*
X156583095Y-122054880D01*
X156868809Y-122054880D02*
X156868809Y-121054880D01*
X156773571Y-121197738D01*
X156678333Y-121292976D01*
X156583095Y-121340595D01*
X157773571Y-121054880D02*
X157868809Y-121054880D01*
X157964047Y-121102500D01*
X158011666Y-121150119D01*
X158059285Y-121245357D01*
X158106904Y-121435833D01*
X158106904Y-121673928D01*
X158059285Y-121864404D01*
X158011666Y-121959642D01*
X157964047Y-122007261D01*
X157868809Y-122054880D01*
X157773571Y-122054880D01*
X157678333Y-122007261D01*
X157630714Y-121959642D01*
X157583095Y-121864404D01*
X157535476Y-121673928D01*
X157535476Y-121435833D01*
X157583095Y-121245357D01*
X157630714Y-121150119D01*
X157678333Y-121102500D01*
X157773571Y-121054880D01*
X155783660Y-122658214D02*
X155700327Y-123324880D01*
X155616994Y-122277261D02*
X155313422Y-122991547D01*
X155870565Y-122991547D01*
X156211041Y-122324880D02*
X156811041Y-122324880D01*
X156300327Y-123324880D01*
X157497946Y-122658214D02*
X157414613Y-123324880D01*
X157112232Y-122658214D02*
X157046755Y-123182023D01*
X157077708Y-123277261D01*
X157157470Y-123324880D01*
X157286041Y-123324880D01*
X157377708Y-123277261D01*
X157426517Y-123229642D01*
X158208660Y-122801071D02*
X157908660Y-122801071D01*
X157843184Y-123324880D02*
X157968184Y-122324880D01*
X158396755Y-122324880D01*
X150883928Y-118808452D02*
X150883928Y-118046547D01*
X151264880Y-118427500D02*
X150502976Y-118427500D01*
X127039642Y-109386666D02*
X127087261Y-109434285D01*
X127134880Y-109577142D01*
X127134880Y-109672380D01*
X127087261Y-109815238D01*
X126992023Y-109910476D01*
X126896785Y-109958095D01*
X126706309Y-110005714D01*
X126563452Y-110005714D01*
X126372976Y-109958095D01*
X126277738Y-109910476D01*
X126182500Y-109815238D01*
X126134880Y-109672380D01*
X126134880Y-109577142D01*
X126182500Y-109434285D01*
X126230119Y-109386666D01*
X126563452Y-108815238D02*
X126515833Y-108910476D01*
X126468214Y-108958095D01*
X126372976Y-109005714D01*
X126325357Y-109005714D01*
X126230119Y-108958095D01*
X126182500Y-108910476D01*
X126134880Y-108815238D01*
X126134880Y-108624761D01*
X126182500Y-108529523D01*
X126230119Y-108481904D01*
X126325357Y-108434285D01*
X126372976Y-108434285D01*
X126468214Y-108481904D01*
X126515833Y-108529523D01*
X126563452Y-108624761D01*
X126563452Y-108815238D01*
X126611071Y-108910476D01*
X126658690Y-108958095D01*
X126753928Y-109005714D01*
X126944404Y-109005714D01*
X127039642Y-108958095D01*
X127087261Y-108910476D01*
X127134880Y-108815238D01*
X127134880Y-108624761D01*
X127087261Y-108529523D01*
X127039642Y-108481904D01*
X126944404Y-108434285D01*
X126753928Y-108434285D01*
X126658690Y-108481904D01*
X126611071Y-108529523D01*
X126563452Y-108624761D01*
X126134880Y-106540744D02*
X126134880Y-106455029D01*
X126182500Y-106375267D01*
X126230119Y-106338363D01*
X126325357Y-106307410D01*
X126515833Y-106288363D01*
X126753928Y-106318125D01*
X126944404Y-106384791D01*
X127039642Y-106439553D01*
X127087261Y-106488363D01*
X127134880Y-106580029D01*
X127134880Y-106665744D01*
X127087261Y-106745505D01*
X127039642Y-106782410D01*
X126944404Y-106813363D01*
X126753928Y-106832410D01*
X126515833Y-106802648D01*
X126325357Y-106735982D01*
X126230119Y-106681220D01*
X126182500Y-106632410D01*
X126134880Y-106540744D01*
X127039642Y-105968125D02*
X127087261Y-105931220D01*
X127134880Y-105980029D01*
X127087261Y-106016934D01*
X127039642Y-105968125D01*
X127134880Y-105980029D01*
X127134880Y-105080029D02*
X127134880Y-105594315D01*
X127134880Y-105337172D02*
X126134880Y-105212172D01*
X126277738Y-105315744D01*
X126372976Y-105413363D01*
X126420595Y-105505029D01*
X126468214Y-104225267D02*
X127134880Y-104308601D01*
X126468214Y-104610982D02*
X126992023Y-104676458D01*
X127087261Y-104645505D01*
X127134880Y-104565744D01*
X127134880Y-104437172D01*
X127087261Y-104345505D01*
X127039642Y-104296696D01*
X126611071Y-103514553D02*
X126611071Y-103814553D01*
X127134880Y-103880029D02*
X126134880Y-103755029D01*
X126134880Y-103326458D01*
X224877380Y-98869404D02*
X225686904Y-98869404D01*
X225782142Y-98821785D01*
X225829761Y-98774166D01*
X225877380Y-98678928D01*
X225877380Y-98488452D01*
X225829761Y-98393214D01*
X225782142Y-98345595D01*
X225686904Y-98297976D01*
X224877380Y-98297976D01*
X224972619Y-97869404D02*
X224925000Y-97821785D01*
X224877380Y-97726547D01*
X224877380Y-97488452D01*
X224925000Y-97393214D01*
X224972619Y-97345595D01*
X225067857Y-97297976D01*
X225163095Y-97297976D01*
X225305952Y-97345595D01*
X225877380Y-97917023D01*
X225877380Y-97297976D01*
X225829761Y-93484077D02*
X225877380Y-93375744D01*
X225877380Y-93185267D01*
X225829761Y-93103125D01*
X225782142Y-93059077D01*
X225686904Y-93009077D01*
X225591666Y-92997172D01*
X225496428Y-93023363D01*
X225448809Y-93055505D01*
X225401190Y-93125744D01*
X225353571Y-93272172D01*
X225305952Y-93342410D01*
X225258333Y-93374553D01*
X225163095Y-93400744D01*
X225067857Y-93388839D01*
X224972619Y-93338839D01*
X224925000Y-93294791D01*
X224877380Y-93212648D01*
X224877380Y-93022172D01*
X224925000Y-92913839D01*
X225829761Y-92722172D02*
X225877380Y-92613839D01*
X225877380Y-92423363D01*
X225829761Y-92341220D01*
X225782142Y-92297172D01*
X225686904Y-92247172D01*
X225591666Y-92235267D01*
X225496428Y-92261458D01*
X225448809Y-92293601D01*
X225401190Y-92363839D01*
X225353571Y-92510267D01*
X225305952Y-92580505D01*
X225258333Y-92612648D01*
X225163095Y-92638839D01*
X225067857Y-92626934D01*
X224972619Y-92576934D01*
X224925000Y-92532886D01*
X224877380Y-92450744D01*
X224877380Y-92260267D01*
X224925000Y-92151934D01*
X224877380Y-91917410D02*
X224877380Y-91460267D01*
X225877380Y-91813839D02*
X224877380Y-91688839D01*
X224877380Y-91269791D02*
X224877380Y-90774553D01*
X225258333Y-91088839D01*
X225258333Y-90974553D01*
X225305952Y-90904315D01*
X225353571Y-90872172D01*
X225448809Y-90845982D01*
X225686904Y-90875744D01*
X225782142Y-90925744D01*
X225829761Y-90969791D01*
X225877380Y-91051934D01*
X225877380Y-91280505D01*
X225829761Y-91350744D01*
X225782142Y-91382886D01*
X225877380Y-90518601D02*
X225877380Y-90366220D01*
X225829761Y-90284077D01*
X225782142Y-90240029D01*
X225639285Y-90145982D01*
X225448809Y-90084077D01*
X225067857Y-90036458D01*
X224972619Y-90062648D01*
X224925000Y-90094791D01*
X224877380Y-90165029D01*
X224877380Y-90317410D01*
X224925000Y-90399553D01*
X224972619Y-90443601D01*
X225067857Y-90493601D01*
X225305952Y-90523363D01*
X225401190Y-90497172D01*
X225448809Y-90465029D01*
X225496428Y-90394791D01*
X225496428Y-90242410D01*
X225448809Y-90160267D01*
X225401190Y-90116220D01*
X225305952Y-90066220D01*
X225829761Y-89826934D02*
X225877380Y-89718601D01*
X225877380Y-89528125D01*
X225829761Y-89445982D01*
X225782142Y-89401934D01*
X225686904Y-89351934D01*
X225591666Y-89340029D01*
X225496428Y-89366220D01*
X225448809Y-89398363D01*
X225401190Y-89468601D01*
X225353571Y-89615029D01*
X225305952Y-89685267D01*
X225258333Y-89717410D01*
X225163095Y-89743601D01*
X225067857Y-89731696D01*
X224972619Y-89681696D01*
X224925000Y-89637648D01*
X224877380Y-89555505D01*
X224877380Y-89365029D01*
X224925000Y-89256696D01*
X225353571Y-88700744D02*
X225353571Y-88967410D01*
X225877380Y-89032886D02*
X224877380Y-88907886D01*
X224877380Y-88526934D01*
X224877380Y-88069791D02*
X224877380Y-87993601D01*
X224925000Y-87923363D01*
X224972619Y-87891220D01*
X225067857Y-87865029D01*
X225258333Y-87850744D01*
X225496428Y-87880505D01*
X225686904Y-87942410D01*
X225782142Y-87992410D01*
X225829761Y-88036458D01*
X225877380Y-88118601D01*
X225877380Y-88194791D01*
X225829761Y-88265029D01*
X225782142Y-88297172D01*
X225686904Y-88323363D01*
X225496428Y-88337648D01*
X225258333Y-88307886D01*
X225067857Y-88245982D01*
X224972619Y-88195982D01*
X224925000Y-88151934D01*
X224877380Y-88069791D01*
X225210714Y-87159077D02*
X225877380Y-87242410D01*
X224829761Y-87301934D02*
X225544047Y-87581696D01*
X225544047Y-87086458D01*
X224877380Y-86545982D02*
X224877380Y-86469791D01*
X224925000Y-86399553D01*
X224972619Y-86367410D01*
X225067857Y-86341220D01*
X225258333Y-86326934D01*
X225496428Y-86356696D01*
X225686904Y-86418601D01*
X225782142Y-86468601D01*
X225829761Y-86512648D01*
X225877380Y-86594791D01*
X225877380Y-86670982D01*
X225829761Y-86741220D01*
X225782142Y-86773363D01*
X225686904Y-86799553D01*
X225496428Y-86813839D01*
X225258333Y-86784077D01*
X225067857Y-86722172D01*
X224972619Y-86672172D01*
X224925000Y-86628125D01*
X224877380Y-86545982D01*
X132588095Y-102004880D02*
X132588095Y-102814404D01*
X132635714Y-102909642D01*
X132683333Y-102957261D01*
X132778571Y-103004880D01*
X132969047Y-103004880D01*
X133064285Y-102957261D01*
X133111904Y-102909642D01*
X133159523Y-102814404D01*
X133159523Y-102004880D01*
X133778571Y-102433452D02*
X133683333Y-102385833D01*
X133635714Y-102338214D01*
X133588095Y-102242976D01*
X133588095Y-102195357D01*
X133635714Y-102100119D01*
X133683333Y-102052500D01*
X133778571Y-102004880D01*
X133969047Y-102004880D01*
X134064285Y-102052500D01*
X134111904Y-102100119D01*
X134159523Y-102195357D01*
X134159523Y-102242976D01*
X134111904Y-102338214D01*
X134064285Y-102385833D01*
X133969047Y-102433452D01*
X133778571Y-102433452D01*
X133683333Y-102481071D01*
X133635714Y-102528690D01*
X133588095Y-102623928D01*
X133588095Y-102814404D01*
X133635714Y-102909642D01*
X133683333Y-102957261D01*
X133778571Y-103004880D01*
X133969047Y-103004880D01*
X134064285Y-102957261D01*
X134111904Y-102909642D01*
X134159523Y-102814404D01*
X134159523Y-102623928D01*
X134111904Y-102528690D01*
X134064285Y-102481071D01*
X133969047Y-102433452D01*
X150264880Y-113060386D02*
X150264880Y-112460386D01*
X151264880Y-112971101D01*
X150598214Y-111773482D02*
X151264880Y-111856815D01*
X150217261Y-111940148D02*
X150931547Y-112243720D01*
X150931547Y-111686577D01*
X150979166Y-111392529D02*
X150979166Y-110963958D01*
X151264880Y-111513958D02*
X150264880Y-111088958D01*
X151264880Y-110913958D01*
X151264880Y-110613958D02*
X150264880Y-110488958D01*
X150741071Y-110548482D02*
X150741071Y-110034196D01*
X151264880Y-110099672D02*
X150264880Y-109974672D01*
X151169642Y-109144910D02*
X151217261Y-109193720D01*
X151264880Y-109328244D01*
X151264880Y-109413958D01*
X151217261Y-109536577D01*
X151122023Y-109610386D01*
X151026785Y-109641339D01*
X150836309Y-109660386D01*
X150693452Y-109642529D01*
X150502976Y-109575863D01*
X150407738Y-109521101D01*
X150312500Y-109423482D01*
X150264880Y-109288958D01*
X150264880Y-109203244D01*
X150312500Y-109080625D01*
X150360119Y-109043720D01*
X150264880Y-108774672D02*
X150264880Y-108260386D01*
X151264880Y-108642529D02*
X150264880Y-108517529D01*
X150264880Y-107788958D02*
X150264880Y-107703244D01*
X150312500Y-107623482D01*
X150360119Y-107586577D01*
X150455357Y-107555625D01*
X150645833Y-107536577D01*
X150883928Y-107566339D01*
X151074404Y-107633005D01*
X151169642Y-107687767D01*
X151217261Y-107736577D01*
X151264880Y-107828244D01*
X151264880Y-107913958D01*
X151217261Y-107993720D01*
X151169642Y-108030625D01*
X151074404Y-108061577D01*
X150883928Y-108080625D01*
X150645833Y-108050863D01*
X150455357Y-107984196D01*
X150360119Y-107929434D01*
X150312500Y-107880625D01*
X150264880Y-107788958D01*
X150264880Y-106931815D02*
X150264880Y-106846101D01*
X150312500Y-106766339D01*
X150360119Y-106729434D01*
X150455357Y-106698482D01*
X150645833Y-106679434D01*
X150883928Y-106709196D01*
X151074404Y-106775863D01*
X151169642Y-106830625D01*
X151217261Y-106879434D01*
X151264880Y-106971101D01*
X151264880Y-107056815D01*
X151217261Y-107136577D01*
X151169642Y-107173482D01*
X151074404Y-107204434D01*
X150883928Y-107223482D01*
X150645833Y-107193720D01*
X150455357Y-107127053D01*
X150360119Y-107072291D01*
X150312500Y-107023482D01*
X150264880Y-106931815D01*
X201969642Y-94781666D02*
X202017261Y-94829285D01*
X202064880Y-94972142D01*
X202064880Y-95067380D01*
X202017261Y-95210238D01*
X201922023Y-95305476D01*
X201826785Y-95353095D01*
X201636309Y-95400714D01*
X201493452Y-95400714D01*
X201302976Y-95353095D01*
X201207738Y-95305476D01*
X201112500Y-95210238D01*
X201064880Y-95067380D01*
X201064880Y-94972142D01*
X201112500Y-94829285D01*
X201160119Y-94781666D01*
X201160119Y-94400714D02*
X201112500Y-94353095D01*
X201064880Y-94257857D01*
X201064880Y-94019761D01*
X201112500Y-93924523D01*
X201160119Y-93876904D01*
X201255357Y-93829285D01*
X201350595Y-93829285D01*
X201493452Y-93876904D01*
X202064880Y-94448333D01*
X202064880Y-93829285D01*
X202334880Y-96063244D02*
X202334880Y-95977529D01*
X202382500Y-95897767D01*
X202430119Y-95860863D01*
X202525357Y-95829910D01*
X202715833Y-95810863D01*
X202953928Y-95840625D01*
X203144404Y-95907291D01*
X203239642Y-95962053D01*
X203287261Y-96010863D01*
X203334880Y-96102529D01*
X203334880Y-96188244D01*
X203287261Y-96268005D01*
X203239642Y-96304910D01*
X203144404Y-96335863D01*
X202953928Y-96354910D01*
X202715833Y-96325148D01*
X202525357Y-96258482D01*
X202430119Y-96203720D01*
X202382500Y-96154910D01*
X202334880Y-96063244D01*
X203239642Y-95490625D02*
X203287261Y-95453720D01*
X203334880Y-95502529D01*
X203287261Y-95539434D01*
X203239642Y-95490625D01*
X203334880Y-95502529D01*
X203334880Y-94602529D02*
X203334880Y-95116815D01*
X203334880Y-94859672D02*
X202334880Y-94734672D01*
X202477738Y-94838244D01*
X202572976Y-94935863D01*
X202620595Y-95027529D01*
X202668214Y-93747767D02*
X203334880Y-93831101D01*
X202668214Y-94133482D02*
X203192023Y-94198958D01*
X203287261Y-94168005D01*
X203334880Y-94088244D01*
X203334880Y-93959672D01*
X203287261Y-93868005D01*
X203239642Y-93819196D01*
X202811071Y-93037053D02*
X202811071Y-93337053D01*
X203334880Y-93402529D02*
X202334880Y-93277529D01*
X202334880Y-92848958D01*
X152122142Y-90019166D02*
X152169761Y-90066785D01*
X152217380Y-90209642D01*
X152217380Y-90304880D01*
X152169761Y-90447738D01*
X152074523Y-90542976D01*
X151979285Y-90590595D01*
X151788809Y-90638214D01*
X151645952Y-90638214D01*
X151455476Y-90590595D01*
X151360238Y-90542976D01*
X151265000Y-90447738D01*
X151217380Y-90304880D01*
X151217380Y-90209642D01*
X151265000Y-90066785D01*
X151312619Y-90019166D01*
X151217380Y-89685833D02*
X151217380Y-89019166D01*
X152217380Y-89447738D01*
X152487380Y-91300744D02*
X152487380Y-91215029D01*
X152535000Y-91135267D01*
X152582619Y-91098363D01*
X152677857Y-91067410D01*
X152868333Y-91048363D01*
X153106428Y-91078125D01*
X153296904Y-91144791D01*
X153392142Y-91199553D01*
X153439761Y-91248363D01*
X153487380Y-91340029D01*
X153487380Y-91425744D01*
X153439761Y-91505505D01*
X153392142Y-91542410D01*
X153296904Y-91573363D01*
X153106428Y-91592410D01*
X152868333Y-91562648D01*
X152677857Y-91495982D01*
X152582619Y-91441220D01*
X152535000Y-91392410D01*
X152487380Y-91300744D01*
X153392142Y-90728125D02*
X153439761Y-90691220D01*
X153487380Y-90740029D01*
X153439761Y-90776934D01*
X153392142Y-90728125D01*
X153487380Y-90740029D01*
X153487380Y-89840029D02*
X153487380Y-90354315D01*
X153487380Y-90097172D02*
X152487380Y-89972172D01*
X152630238Y-90075744D01*
X152725476Y-90173363D01*
X152773095Y-90265029D01*
X152820714Y-88985267D02*
X153487380Y-89068601D01*
X152820714Y-89370982D02*
X153344523Y-89436458D01*
X153439761Y-89405505D01*
X153487380Y-89325744D01*
X153487380Y-89197172D01*
X153439761Y-89105505D01*
X153392142Y-89056696D01*
X152963571Y-88274553D02*
X152963571Y-88574553D01*
X153487380Y-88640029D02*
X152487380Y-88515029D01*
X152487380Y-88086458D01*
X162710833Y-124182142D02*
X162663214Y-124229761D01*
X162520357Y-124277380D01*
X162425119Y-124277380D01*
X162282261Y-124229761D01*
X162187023Y-124134523D01*
X162139404Y-124039285D01*
X162091785Y-123848809D01*
X162091785Y-123705952D01*
X162139404Y-123515476D01*
X162187023Y-123420238D01*
X162282261Y-123325000D01*
X162425119Y-123277380D01*
X162520357Y-123277380D01*
X162663214Y-123325000D01*
X162710833Y-123372619D01*
X163663214Y-124277380D02*
X163091785Y-124277380D01*
X163377500Y-124277380D02*
X163377500Y-123277380D01*
X163282261Y-123420238D01*
X163187023Y-123515476D01*
X163091785Y-123563095D01*
X165239255Y-123277380D02*
X165324970Y-123277380D01*
X165404732Y-123325000D01*
X165441636Y-123372619D01*
X165472589Y-123467857D01*
X165491636Y-123658333D01*
X165461875Y-123896428D01*
X165395208Y-124086904D01*
X165340446Y-124182142D01*
X165291636Y-124229761D01*
X165199970Y-124277380D01*
X165114255Y-124277380D01*
X165034494Y-124229761D01*
X164997589Y-124182142D01*
X164966636Y-124086904D01*
X164947589Y-123896428D01*
X164977351Y-123658333D01*
X165044017Y-123467857D01*
X165098779Y-123372619D01*
X165147589Y-123325000D01*
X165239255Y-123277380D01*
X165811875Y-124182142D02*
X165848779Y-124229761D01*
X165799970Y-124277380D01*
X165763065Y-124229761D01*
X165811875Y-124182142D01*
X165799970Y-124277380D01*
X166699970Y-124277380D02*
X166185684Y-124277380D01*
X166442827Y-124277380D02*
X166567827Y-123277380D01*
X166464255Y-123420238D01*
X166366636Y-123515476D01*
X166274970Y-123563095D01*
X167554732Y-123610714D02*
X167471398Y-124277380D01*
X167169017Y-123610714D02*
X167103541Y-124134523D01*
X167134494Y-124229761D01*
X167214255Y-124277380D01*
X167342827Y-124277380D01*
X167434494Y-124229761D01*
X167483303Y-124182142D01*
X168265446Y-123753571D02*
X167965446Y-123753571D01*
X167899970Y-124277380D02*
X168024970Y-123277380D01*
X168453541Y-123277380D01*
X178204880Y-118236904D02*
X179014404Y-118236904D01*
X179109642Y-118189285D01*
X179157261Y-118141666D01*
X179204880Y-118046428D01*
X179204880Y-117855952D01*
X179157261Y-117760714D01*
X179109642Y-117713095D01*
X179014404Y-117665476D01*
X178204880Y-117665476D01*
X179204880Y-116665476D02*
X179204880Y-117236904D01*
X179204880Y-116951190D02*
X178204880Y-116951190D01*
X178347738Y-117046428D01*
X178442976Y-117141666D01*
X178490595Y-117236904D01*
X178204880Y-108954196D02*
X178204880Y-108420863D01*
X179204880Y-109079196D01*
X179204880Y-108545863D01*
X178633452Y-108055386D02*
X178585833Y-108125625D01*
X178538214Y-108157767D01*
X178442976Y-108183958D01*
X178395357Y-108178005D01*
X178300119Y-108128005D01*
X178252500Y-108083958D01*
X178204880Y-108001815D01*
X178204880Y-107849434D01*
X178252500Y-107779196D01*
X178300119Y-107747053D01*
X178395357Y-107720863D01*
X178442976Y-107726815D01*
X178538214Y-107776815D01*
X178585833Y-107820863D01*
X178633452Y-107903005D01*
X178633452Y-108055386D01*
X178681071Y-108137529D01*
X178728690Y-108181577D01*
X178823928Y-108231577D01*
X179014404Y-108255386D01*
X179109642Y-108229196D01*
X179157261Y-108197053D01*
X179204880Y-108126815D01*
X179204880Y-107974434D01*
X179157261Y-107892291D01*
X179109642Y-107848244D01*
X179014404Y-107798244D01*
X178823928Y-107774434D01*
X178728690Y-107800625D01*
X178681071Y-107832767D01*
X178633452Y-107903005D01*
X178538214Y-107053005D02*
X179204880Y-107136339D01*
X178157261Y-107195863D02*
X178871547Y-107475625D01*
X178871547Y-106980386D01*
X179109642Y-106248244D02*
X179157261Y-106292291D01*
X179204880Y-106412529D01*
X179204880Y-106488720D01*
X179157261Y-106597053D01*
X179062023Y-106661339D01*
X178966785Y-106687529D01*
X178776309Y-106701815D01*
X178633452Y-106683958D01*
X178442976Y-106622053D01*
X178347738Y-106572053D01*
X178252500Y-106483958D01*
X178204880Y-106363720D01*
X178204880Y-106287529D01*
X178252500Y-106179196D01*
X178300119Y-106147053D01*
X178204880Y-105639910D02*
X178204880Y-105563720D01*
X178252500Y-105493482D01*
X178300119Y-105461339D01*
X178395357Y-105435148D01*
X178585833Y-105420863D01*
X178823928Y-105450625D01*
X179014404Y-105512529D01*
X179109642Y-105562529D01*
X179157261Y-105606577D01*
X179204880Y-105688720D01*
X179204880Y-105764910D01*
X179157261Y-105835148D01*
X179109642Y-105867291D01*
X179014404Y-105893482D01*
X178823928Y-105907767D01*
X178585833Y-105878005D01*
X178395357Y-105816101D01*
X178300119Y-105766101D01*
X178252500Y-105722053D01*
X178204880Y-105639910D01*
X178204880Y-104878005D02*
X178204880Y-104801815D01*
X178252500Y-104731577D01*
X178300119Y-104699434D01*
X178395357Y-104673244D01*
X178585833Y-104658958D01*
X178823928Y-104688720D01*
X179014404Y-104750625D01*
X179109642Y-104800625D01*
X179157261Y-104844672D01*
X179204880Y-104926815D01*
X179204880Y-105003005D01*
X179157261Y-105073244D01*
X179109642Y-105105386D01*
X179014404Y-105131577D01*
X178823928Y-105145863D01*
X178585833Y-105116101D01*
X178395357Y-105054196D01*
X178300119Y-105004196D01*
X178252500Y-104960148D01*
X178204880Y-104878005D01*
X178823928Y-104345863D02*
X178823928Y-103736339D01*
X179204880Y-103403005D02*
X178204880Y-103278005D01*
X178204880Y-102973244D01*
X178252500Y-102903005D01*
X178300119Y-102870863D01*
X178395357Y-102844672D01*
X178538214Y-102862529D01*
X178633452Y-102912529D01*
X178681071Y-102956577D01*
X178728690Y-103038720D01*
X178728690Y-103343482D01*
X179204880Y-102222053D02*
X179204880Y-102603005D01*
X178204880Y-102478005D01*
X179109642Y-101486339D02*
X179157261Y-101530386D01*
X179204880Y-101650625D01*
X179204880Y-101726815D01*
X179157261Y-101835148D01*
X179062023Y-101899434D01*
X178966785Y-101925625D01*
X178776309Y-101939910D01*
X178633452Y-101922053D01*
X178442976Y-101860148D01*
X178347738Y-101810148D01*
X178252500Y-101722053D01*
X178204880Y-101601815D01*
X178204880Y-101525625D01*
X178252500Y-101417291D01*
X178300119Y-101385148D01*
X179109642Y-100686339D02*
X179157261Y-100730386D01*
X179204880Y-100850625D01*
X179204880Y-100926815D01*
X179157261Y-101035148D01*
X179062023Y-101099434D01*
X178966785Y-101125625D01*
X178776309Y-101139910D01*
X178633452Y-101122053D01*
X178442976Y-101060148D01*
X178347738Y-101010148D01*
X178252500Y-100922053D01*
X178204880Y-100801815D01*
X178204880Y-100725625D01*
X178252500Y-100617291D01*
X178300119Y-100585148D01*
X132375900Y-90764018D02*
X132510587Y-90696675D01*
X132678946Y-90528316D01*
X132712618Y-90427301D01*
X132712618Y-90359957D01*
X132678946Y-90258942D01*
X132611603Y-90191599D01*
X132510587Y-90157927D01*
X132443244Y-90157927D01*
X132342229Y-90191599D01*
X132173870Y-90292614D01*
X132072855Y-90326286D01*
X132005511Y-90326286D01*
X131904496Y-90292614D01*
X131837152Y-90225270D01*
X131803481Y-90124255D01*
X131803481Y-90056912D01*
X131837152Y-89955896D01*
X132005511Y-89787538D01*
X132140198Y-89720194D01*
X132342229Y-89450820D02*
X133217694Y-89989568D01*
X132847305Y-89349805D01*
X133487068Y-89720194D01*
X132948320Y-88844729D01*
X134295190Y-88912072D02*
X133891129Y-89316133D01*
X134093160Y-89114103D02*
X133386053Y-88406996D01*
X133419725Y-88575355D01*
X133419725Y-88710042D01*
X133386053Y-88811057D01*
X135536148Y-87671114D02*
X135029388Y-87504439D01*
X135172493Y-88034769D02*
X134553775Y-87239274D01*
X134796211Y-86996838D01*
X134886283Y-86974109D01*
X134946050Y-86981685D01*
X135035281Y-87027142D01*
X135123669Y-87140784D01*
X135152290Y-87246850D01*
X135151448Y-87315036D01*
X135120302Y-87413525D01*
X134877865Y-87655962D01*
X135484798Y-86981685D02*
X135696931Y-86769553D01*
X136111935Y-87095327D02*
X135808889Y-87398373D01*
X135190171Y-86602878D01*
X135493216Y-86299832D01*
X136324909Y-86815010D02*
X136445285Y-86761977D01*
X136596808Y-86610454D01*
X136627954Y-86511964D01*
X136628796Y-86443779D01*
X136600175Y-86337713D01*
X136541250Y-86261952D01*
X136452020Y-86216495D01*
X136392252Y-86208919D01*
X136302180Y-86231647D01*
X136151499Y-86314985D01*
X136061427Y-86337713D01*
X136001660Y-86330137D01*
X135912430Y-86284680D01*
X135853504Y-86208919D01*
X135824883Y-86102853D01*
X135825725Y-86034667D01*
X135856871Y-85936177D01*
X136008394Y-85784654D01*
X136128771Y-85731621D01*
X136666677Y-85799807D02*
X136878809Y-85587675D01*
X137293813Y-85913449D02*
X136990768Y-86216495D01*
X136372049Y-85421000D01*
X136675095Y-85117954D01*
X136856922Y-84936126D02*
X137220577Y-84572471D01*
X137657468Y-85549794D02*
X137038750Y-84754299D01*
X139057142Y-86082142D02*
X139009523Y-86129761D01*
X138866666Y-86177380D01*
X138771428Y-86177380D01*
X138628571Y-86129761D01*
X138533333Y-86034523D01*
X138485714Y-85939285D01*
X138438095Y-85748809D01*
X138438095Y-85605952D01*
X138485714Y-85415476D01*
X138533333Y-85320238D01*
X138628571Y-85225000D01*
X138771428Y-85177380D01*
X138866666Y-85177380D01*
X139009523Y-85225000D01*
X139057142Y-85272619D01*
X140009523Y-86177380D02*
X139438095Y-86177380D01*
X139723809Y-86177380D02*
X139723809Y-85177380D01*
X139628571Y-85320238D01*
X139533333Y-85415476D01*
X139438095Y-85463095D01*
X140961904Y-86177380D02*
X140390476Y-86177380D01*
X140676190Y-86177380D02*
X140676190Y-85177380D01*
X140580952Y-85320238D01*
X140485714Y-85415476D01*
X140390476Y-85463095D01*
X142879613Y-86177380D02*
X142365327Y-86177380D01*
X142622470Y-86177380D02*
X142747470Y-85177380D01*
X142643898Y-85320238D01*
X142546279Y-85415476D01*
X142454613Y-85463095D01*
X143348660Y-85510714D02*
X143265327Y-86177380D01*
X143336755Y-85605952D02*
X143385565Y-85558333D01*
X143477232Y-85510714D01*
X143605803Y-85510714D01*
X143685565Y-85558333D01*
X143716517Y-85653571D01*
X143651041Y-86177380D01*
X144445089Y-85653571D02*
X144145089Y-85653571D01*
X144079613Y-86177380D02*
X144204613Y-85177380D01*
X144633184Y-85177380D01*
X148359880Y-101457023D02*
X149359880Y-100790357D01*
X148359880Y-100790357D02*
X149359880Y-101457023D01*
X149359880Y-99885595D02*
X149359880Y-100457023D01*
X149359880Y-100171309D02*
X148359880Y-100171309D01*
X148502738Y-100266547D01*
X148597976Y-100361785D01*
X148645595Y-100457023D01*
X148359880Y-96495625D02*
X148359880Y-95962291D01*
X149359880Y-96430148D01*
X149264642Y-95770625D02*
X149312261Y-95738482D01*
X149359880Y-95782529D01*
X149312261Y-95814672D01*
X149264642Y-95770625D01*
X149359880Y-95782529D01*
X148359880Y-95352767D02*
X148359880Y-94857529D01*
X148740833Y-95171815D01*
X148740833Y-95057529D01*
X148788452Y-94987291D01*
X148836071Y-94955148D01*
X148931309Y-94928958D01*
X149169404Y-94958720D01*
X149264642Y-95008720D01*
X149312261Y-95052767D01*
X149359880Y-95134910D01*
X149359880Y-95363482D01*
X149312261Y-95433720D01*
X149264642Y-95465863D01*
X148359880Y-94590863D02*
X148359880Y-94057529D01*
X149359880Y-94525386D01*
X148455119Y-93802767D02*
X148407500Y-93758720D01*
X148359880Y-93676577D01*
X148359880Y-93486101D01*
X148407500Y-93415863D01*
X148455119Y-93383720D01*
X148550357Y-93357529D01*
X148645595Y-93369434D01*
X148788452Y-93425386D01*
X149359880Y-93953958D01*
X149359880Y-93458720D01*
X148788452Y-92930148D02*
X148740833Y-93000386D01*
X148693214Y-93032529D01*
X148597976Y-93058720D01*
X148550357Y-93052767D01*
X148455119Y-93002767D01*
X148407500Y-92958720D01*
X148359880Y-92876577D01*
X148359880Y-92724196D01*
X148407500Y-92653958D01*
X148455119Y-92621815D01*
X148550357Y-92595625D01*
X148597976Y-92601577D01*
X148693214Y-92651577D01*
X148740833Y-92695625D01*
X148788452Y-92777767D01*
X148788452Y-92930148D01*
X148836071Y-93012291D01*
X148883690Y-93056339D01*
X148978928Y-93106339D01*
X149169404Y-93130148D01*
X149264642Y-93103958D01*
X149312261Y-93071815D01*
X149359880Y-93001577D01*
X149359880Y-92849196D01*
X149312261Y-92767053D01*
X149264642Y-92723005D01*
X149169404Y-92673005D01*
X148978928Y-92649196D01*
X148883690Y-92675386D01*
X148836071Y-92707529D01*
X148788452Y-92777767D01*
X149359880Y-92353958D02*
X148359880Y-92228958D01*
X149074166Y-92051577D01*
X148359880Y-91695625D01*
X149359880Y-91820625D01*
X149359880Y-91439672D02*
X148359880Y-91314672D01*
X148836071Y-91374196D02*
X148836071Y-90917053D01*
X149359880Y-90982529D02*
X148359880Y-90857529D01*
X148693214Y-90594434D02*
X148693214Y-90175386D01*
X149359880Y-90677767D01*
X149359880Y-90258720D01*
X201731666Y-80732380D02*
X201731666Y-81446666D01*
X201684047Y-81589523D01*
X201588809Y-81684761D01*
X201445952Y-81732380D01*
X201350714Y-81732380D01*
X202207857Y-81732380D02*
X202207857Y-80732380D01*
X202588809Y-80732380D01*
X202684047Y-80780000D01*
X202731666Y-80827619D01*
X202779285Y-80922857D01*
X202779285Y-81065714D01*
X202731666Y-81160952D01*
X202684047Y-81208571D01*
X202588809Y-81256190D01*
X202207857Y-81256190D01*
X203731666Y-81732380D02*
X203160238Y-81732380D01*
X203445952Y-81732380D02*
X203445952Y-80732380D01*
X203350714Y-80875238D01*
X203255476Y-80970476D01*
X203160238Y-81018095D01*
X213165327Y-81732380D02*
X212924851Y-81256190D01*
X212651041Y-81732380D02*
X212776041Y-80732380D01*
X213118898Y-80732380D01*
X213198660Y-80780000D01*
X213235565Y-80827619D01*
X213266517Y-80922857D01*
X213248660Y-81065714D01*
X213193898Y-81160952D01*
X213145089Y-81208571D01*
X213053422Y-81256190D01*
X212710565Y-81256190D01*
X213543898Y-81446666D02*
X213972470Y-81446666D01*
X213422470Y-81732380D02*
X213847470Y-80732380D01*
X214022470Y-81732380D01*
X214322470Y-81732380D02*
X214447470Y-80732380D01*
X214658184Y-81446666D01*
X215047470Y-80732380D01*
X214922470Y-81732380D01*
X215362946Y-81637142D02*
X215399851Y-81684761D01*
X215351041Y-81732380D01*
X215314136Y-81684761D01*
X215362946Y-81637142D01*
X215351041Y-81732380D01*
X215428422Y-81113333D02*
X215465327Y-81160952D01*
X215416517Y-81208571D01*
X215379613Y-81160952D01*
X215428422Y-81113333D01*
X215416517Y-81208571D01*
X217018898Y-80732380D02*
X216590327Y-80732380D01*
X216487946Y-81208571D01*
X216536755Y-81160952D01*
X216628422Y-81113333D01*
X216842708Y-81113333D01*
X216922470Y-81160952D01*
X216959375Y-81208571D01*
X216990327Y-81303809D01*
X216960565Y-81541904D01*
X216905803Y-81637142D01*
X216856994Y-81684761D01*
X216765327Y-81732380D01*
X216551041Y-81732380D01*
X216471279Y-81684761D01*
X216434375Y-81637142D01*
X217793898Y-81732380D02*
X217279613Y-81732380D01*
X217536755Y-81732380D02*
X217661755Y-80732380D01*
X217558184Y-80875238D01*
X217460565Y-80970476D01*
X217368898Y-81018095D01*
X218249851Y-80827619D02*
X218298660Y-80780000D01*
X218390327Y-80732380D01*
X218604613Y-80732380D01*
X218684375Y-80780000D01*
X218721279Y-80827619D01*
X218752232Y-80922857D01*
X218740327Y-81018095D01*
X218679613Y-81160952D01*
X218093898Y-81732380D01*
X218651041Y-81732380D01*
X219036755Y-81732380D02*
X219161755Y-80732380D01*
X219551041Y-81732380D02*
X219236755Y-81160952D01*
X219676041Y-80732380D02*
X219090327Y-81303809D01*
X219936755Y-81732380D02*
X220020089Y-81065714D01*
X220061755Y-80732380D02*
X220012946Y-80780000D01*
X220049851Y-80827619D01*
X220098660Y-80780000D01*
X220061755Y-80732380D01*
X220049851Y-80827619D01*
X220730803Y-81208571D02*
X220853422Y-81256190D01*
X220890327Y-81303809D01*
X220921279Y-81399047D01*
X220903422Y-81541904D01*
X220848660Y-81637142D01*
X220799851Y-81684761D01*
X220708184Y-81732380D01*
X220365327Y-81732380D01*
X220490327Y-80732380D01*
X220790327Y-80732380D01*
X220870089Y-80780000D01*
X220906994Y-80827619D01*
X220937946Y-80922857D01*
X220926041Y-81018095D01*
X220871279Y-81113333D01*
X220822470Y-81160952D01*
X220730803Y-81208571D01*
X220430803Y-81208571D01*
X222039136Y-80684761D02*
X221106994Y-81970476D01*
X222679613Y-81732380D02*
X222165327Y-81732380D01*
X222422470Y-81732380D02*
X222547470Y-80732380D01*
X222443898Y-80875238D01*
X222346279Y-80970476D01*
X222254613Y-81018095D01*
X223135565Y-80827619D02*
X223184375Y-80780000D01*
X223276041Y-80732380D01*
X223490327Y-80732380D01*
X223570089Y-80780000D01*
X223606994Y-80827619D01*
X223637946Y-80922857D01*
X223626041Y-81018095D01*
X223565327Y-81160952D01*
X222979613Y-81732380D01*
X223536755Y-81732380D01*
X224122470Y-81160952D02*
X224042708Y-81113333D01*
X224005803Y-81065714D01*
X223974851Y-80970476D01*
X223980803Y-80922857D01*
X224035565Y-80827619D01*
X224084375Y-80780000D01*
X224176041Y-80732380D01*
X224347470Y-80732380D01*
X224427232Y-80780000D01*
X224464136Y-80827619D01*
X224495089Y-80922857D01*
X224489136Y-80970476D01*
X224434375Y-81065714D01*
X224385565Y-81113333D01*
X224293898Y-81160952D01*
X224122470Y-81160952D01*
X224030803Y-81208571D01*
X223981994Y-81256190D01*
X223927232Y-81351428D01*
X223903422Y-81541904D01*
X223934375Y-81637142D01*
X223971279Y-81684761D01*
X224051041Y-81732380D01*
X224222470Y-81732380D01*
X224314136Y-81684761D01*
X224362946Y-81637142D01*
X224417708Y-81541904D01*
X224441517Y-81351428D01*
X224410565Y-81256190D01*
X224373660Y-81208571D01*
X224293898Y-81160952D01*
X224779613Y-81732380D02*
X224904613Y-80732380D01*
X225293898Y-81732380D02*
X224979613Y-81160952D01*
X225418898Y-80732380D02*
X224833184Y-81303809D01*
X225679613Y-81732380D02*
X225762946Y-81065714D01*
X225804613Y-80732380D02*
X225755803Y-80780000D01*
X225792708Y-80827619D01*
X225841517Y-80780000D01*
X225804613Y-80732380D01*
X225792708Y-80827619D01*
X226473660Y-81208571D02*
X226596279Y-81256190D01*
X226633184Y-81303809D01*
X226664136Y-81399047D01*
X226646279Y-81541904D01*
X226591517Y-81637142D01*
X226542708Y-81684761D01*
X226451041Y-81732380D01*
X226108184Y-81732380D01*
X226233184Y-80732380D01*
X226533184Y-80732380D01*
X226612946Y-80780000D01*
X226649851Y-80827619D01*
X226680803Y-80922857D01*
X226668898Y-81018095D01*
X226614136Y-81113333D01*
X226565327Y-81160952D01*
X226473660Y-81208571D01*
X226173660Y-81208571D01*
X150899880Y-94178333D02*
X151614166Y-94178333D01*
X151757023Y-94225952D01*
X151852261Y-94321190D01*
X151899880Y-94464047D01*
X151899880Y-94559285D01*
X151899880Y-93702142D02*
X150899880Y-93702142D01*
X150899880Y-93321190D01*
X150947500Y-93225952D01*
X150995119Y-93178333D01*
X151090357Y-93130714D01*
X151233214Y-93130714D01*
X151328452Y-93178333D01*
X151376071Y-93225952D01*
X151423690Y-93321190D01*
X151423690Y-93702142D01*
X150995119Y-92749761D02*
X150947500Y-92702142D01*
X150899880Y-92606904D01*
X150899880Y-92368809D01*
X150947500Y-92273571D01*
X150995119Y-92225952D01*
X151090357Y-92178333D01*
X151185595Y-92178333D01*
X151328452Y-92225952D01*
X151899880Y-92797380D01*
X151899880Y-92178333D01*
X158411666Y-93749880D02*
X158583095Y-93749880D01*
X158662857Y-93797500D01*
X158736666Y-93892738D01*
X158755714Y-94083214D01*
X158714047Y-94416547D01*
X158647380Y-94607023D01*
X158549761Y-94702261D01*
X158458095Y-94749880D01*
X158286666Y-94749880D01*
X158206904Y-94702261D01*
X158133095Y-94607023D01*
X158114047Y-94416547D01*
X158155714Y-94083214D01*
X158222380Y-93892738D01*
X158320000Y-93797500D01*
X158411666Y-93749880D01*
X159141428Y-94083214D02*
X159058095Y-94749880D01*
X159129523Y-94178452D02*
X159178333Y-94130833D01*
X159270000Y-94083214D01*
X159398571Y-94083214D01*
X159478333Y-94130833D01*
X159509285Y-94226071D01*
X159443809Y-94749880D01*
X159872380Y-94749880D02*
X159997380Y-93749880D01*
X159949761Y-94130833D02*
X160041428Y-94083214D01*
X160212857Y-94083214D01*
X160292619Y-94130833D01*
X160329523Y-94178452D01*
X160360476Y-94273690D01*
X160324761Y-94559404D01*
X160270000Y-94654642D01*
X160221190Y-94702261D01*
X160129523Y-94749880D01*
X159958095Y-94749880D01*
X159878333Y-94702261D01*
X160815238Y-94749880D02*
X160735476Y-94702261D01*
X160698571Y-94654642D01*
X160667619Y-94559404D01*
X160703333Y-94273690D01*
X160758095Y-94178452D01*
X160806904Y-94130833D01*
X160898571Y-94083214D01*
X161027142Y-94083214D01*
X161106904Y-94130833D01*
X161143809Y-94178452D01*
X161174761Y-94273690D01*
X161139047Y-94559404D01*
X161084285Y-94654642D01*
X161035476Y-94702261D01*
X160943809Y-94749880D01*
X160815238Y-94749880D01*
X161886666Y-94749880D02*
X161952142Y-94226071D01*
X161921190Y-94130833D01*
X161841428Y-94083214D01*
X161670000Y-94083214D01*
X161578333Y-94130833D01*
X161892619Y-94702261D02*
X161800952Y-94749880D01*
X161586666Y-94749880D01*
X161506904Y-94702261D01*
X161475952Y-94607023D01*
X161487857Y-94511785D01*
X161542619Y-94416547D01*
X161634285Y-94368928D01*
X161848571Y-94368928D01*
X161940238Y-94321309D01*
X162315238Y-94749880D02*
X162398571Y-94083214D01*
X162374761Y-94273690D02*
X162429523Y-94178452D01*
X162478333Y-94130833D01*
X162570000Y-94083214D01*
X162655714Y-94083214D01*
X163258095Y-94749880D02*
X163383095Y-93749880D01*
X163264047Y-94702261D02*
X163172380Y-94749880D01*
X163000952Y-94749880D01*
X162921190Y-94702261D01*
X162884285Y-94654642D01*
X162853333Y-94559404D01*
X162889047Y-94273690D01*
X162943809Y-94178452D01*
X162992619Y-94130833D01*
X163084285Y-94083214D01*
X163255714Y-94083214D01*
X163335476Y-94130833D01*
X164668809Y-93749880D02*
X164840238Y-93749880D01*
X164920000Y-93797500D01*
X164993809Y-93892738D01*
X165012857Y-94083214D01*
X164971190Y-94416547D01*
X164904523Y-94607023D01*
X164806904Y-94702261D01*
X164715238Y-94749880D01*
X164543809Y-94749880D01*
X164464047Y-94702261D01*
X164390238Y-94607023D01*
X164371190Y-94416547D01*
X164412857Y-94083214D01*
X164479523Y-93892738D01*
X164577142Y-93797500D01*
X164668809Y-93749880D01*
X165278333Y-94702261D02*
X165400952Y-94749880D01*
X165615238Y-94749880D01*
X165706904Y-94702261D01*
X165755714Y-94654642D01*
X165810476Y-94559404D01*
X165822380Y-94464166D01*
X165791428Y-94368928D01*
X165754523Y-94321309D01*
X165674761Y-94273690D01*
X165509285Y-94226071D01*
X165429523Y-94178452D01*
X165392619Y-94130833D01*
X165361666Y-94035595D01*
X165373571Y-93940357D01*
X165428333Y-93845119D01*
X165477142Y-93797500D01*
X165568809Y-93749880D01*
X165783095Y-93749880D01*
X165905714Y-93797500D01*
X166698571Y-94654642D02*
X166649761Y-94702261D01*
X166515238Y-94749880D01*
X166429523Y-94749880D01*
X166306904Y-94702261D01*
X166233095Y-94607023D01*
X166202142Y-94511785D01*
X166183095Y-94321309D01*
X166200952Y-94178452D01*
X166267619Y-93987976D01*
X166322380Y-93892738D01*
X166420000Y-93797500D01*
X166554523Y-93749880D01*
X166640238Y-93749880D01*
X166762857Y-93797500D01*
X166799761Y-93845119D01*
X168284285Y-94654642D02*
X168235476Y-94702261D01*
X168100952Y-94749880D01*
X168015238Y-94749880D01*
X167892619Y-94702261D01*
X167818809Y-94607023D01*
X167787857Y-94511785D01*
X167768809Y-94321309D01*
X167786666Y-94178452D01*
X167853333Y-93987976D01*
X167908095Y-93892738D01*
X168005714Y-93797500D01*
X168140238Y-93749880D01*
X168225952Y-93749880D01*
X168348571Y-93797500D01*
X168385476Y-93845119D01*
X169086666Y-94749880D02*
X168658095Y-94749880D01*
X168783095Y-93749880D01*
X169386666Y-94749880D02*
X169511666Y-93749880D01*
X169900952Y-94749880D02*
X169586666Y-94178452D01*
X170025952Y-93749880D02*
X169440238Y-94321309D01*
X170927142Y-94083214D02*
X171270000Y-94083214D01*
X171097380Y-93749880D02*
X170990238Y-94607023D01*
X171021190Y-94702261D01*
X171100952Y-94749880D01*
X171186666Y-94749880D01*
X171615238Y-94749880D02*
X171535476Y-94702261D01*
X171498571Y-94654642D01*
X171467619Y-94559404D01*
X171503333Y-94273690D01*
X171558095Y-94178452D01*
X171606904Y-94130833D01*
X171698571Y-94083214D01*
X171827142Y-94083214D01*
X171906904Y-94130833D01*
X171943809Y-94178452D01*
X171974761Y-94273690D01*
X171939047Y-94559404D01*
X171884285Y-94654642D01*
X171835476Y-94702261D01*
X171743809Y-94749880D01*
X171615238Y-94749880D01*
X173512857Y-94654642D02*
X173464047Y-94702261D01*
X173329523Y-94749880D01*
X173243809Y-94749880D01*
X173121190Y-94702261D01*
X173047380Y-94607023D01*
X173016428Y-94511785D01*
X172997380Y-94321309D01*
X173015238Y-94178452D01*
X173081904Y-93987976D01*
X173136666Y-93892738D01*
X173234285Y-93797500D01*
X173368809Y-93749880D01*
X173454523Y-93749880D01*
X173577142Y-93797500D01*
X173614047Y-93845119D01*
X173886666Y-94749880D02*
X174011666Y-93749880D01*
X174354523Y-93749880D01*
X174434285Y-93797500D01*
X174471190Y-93845119D01*
X174502142Y-93940357D01*
X174484285Y-94083214D01*
X174429523Y-94178452D01*
X174380714Y-94226071D01*
X174289047Y-94273690D01*
X173946190Y-94273690D01*
X174911666Y-93749880D02*
X174810476Y-94559404D01*
X174841428Y-94654642D01*
X174878333Y-94702261D01*
X174958095Y-94749880D01*
X175129523Y-94749880D01*
X175221190Y-94702261D01*
X175270000Y-94654642D01*
X175324761Y-94559404D01*
X175425952Y-93749880D01*
X177522142Y-96686666D02*
X177569761Y-96734285D01*
X177617380Y-96877142D01*
X177617380Y-96972380D01*
X177569761Y-97115238D01*
X177474523Y-97210476D01*
X177379285Y-97258095D01*
X177188809Y-97305714D01*
X177045952Y-97305714D01*
X176855476Y-97258095D01*
X176760238Y-97210476D01*
X176665000Y-97115238D01*
X176617380Y-96972380D01*
X176617380Y-96877142D01*
X176665000Y-96734285D01*
X176712619Y-96686666D01*
X176950714Y-95829523D02*
X177617380Y-95829523D01*
X176569761Y-96067619D02*
X177284047Y-96305714D01*
X177284047Y-95686666D01*
X176617380Y-93840744D02*
X176617380Y-93755029D01*
X176665000Y-93675267D01*
X176712619Y-93638363D01*
X176807857Y-93607410D01*
X176998333Y-93588363D01*
X177236428Y-93618125D01*
X177426904Y-93684791D01*
X177522142Y-93739553D01*
X177569761Y-93788363D01*
X177617380Y-93880029D01*
X177617380Y-93965744D01*
X177569761Y-94045505D01*
X177522142Y-94082410D01*
X177426904Y-94113363D01*
X177236428Y-94132410D01*
X176998333Y-94102648D01*
X176807857Y-94035982D01*
X176712619Y-93981220D01*
X176665000Y-93932410D01*
X176617380Y-93840744D01*
X177522142Y-93268125D02*
X177569761Y-93231220D01*
X177617380Y-93280029D01*
X177569761Y-93316934D01*
X177522142Y-93268125D01*
X177617380Y-93280029D01*
X177617380Y-92380029D02*
X177617380Y-92894315D01*
X177617380Y-92637172D02*
X176617380Y-92512172D01*
X176760238Y-92615744D01*
X176855476Y-92713363D01*
X176903095Y-92805029D01*
X176950714Y-91525267D02*
X177617380Y-91608601D01*
X176950714Y-91910982D02*
X177474523Y-91976458D01*
X177569761Y-91945505D01*
X177617380Y-91865744D01*
X177617380Y-91737172D01*
X177569761Y-91645505D01*
X177522142Y-91596696D01*
X177093571Y-90814553D02*
X177093571Y-91114553D01*
X177617380Y-91180029D02*
X176617380Y-91055029D01*
X176617380Y-90626458D01*
D10*
X153670000Y-82042000D02*
X173990000Y-82042000D01*
X173990000Y-82042000D02*
X173990000Y-88138000D01*
X153670000Y-88138000D02*
X153670000Y-82042000D01*
X173990000Y-88138000D02*
X153670000Y-88138000D01*
X154686000Y-85090000D02*
G75*
G03*
X153670000Y-84074000I-1016002J-2D01*
G01*
X153670000Y-86106000D02*
G75*
G03*
X154686000Y-85090000I-2J1016002D01*
G01*
X200660000Y-92202000D02*
X200660000Y-98298000D01*
X180340000Y-98298000D02*
X180340000Y-92202000D01*
X200660000Y-98298000D02*
X180340000Y-98298000D01*
X180340000Y-92202000D02*
X200660000Y-92202000D01*
X181356000Y-95250000D02*
G75*
G03*
X180340000Y-94234000I-1016002J-2D01*
G01*
X180340000Y-96266000D02*
G75*
G03*
X181356000Y-95250000I-2J1016002D01*
G01*
X138557000Y-88646000D02*
X144653000Y-88646000D01*
X145161000Y-88138000D02*
X145161000Y-87122000D01*
X138049000Y-88138000D02*
X138049000Y-87122000D01*
X138557000Y-86614000D02*
X144653000Y-86614000D01*
X145161000Y-87122000D02*
G75*
G03*
X144653000Y-86614000I-508001J-1D01*
G01*
X138557000Y-86614000D02*
G75*
G03*
X138049000Y-87122000I1J-508001D01*
G01*
X138049000Y-88138000D02*
G75*
G03*
X138557000Y-88646000I508001J1D01*
G01*
X144653000Y-88646000D02*
G75*
G03*
X145161000Y-88138000I-1J508001D01*
G01*
X173990000Y-120650000D02*
X189230000Y-120650000D01*
X189230000Y-120650000D02*
X189230000Y-123190000D01*
X189230000Y-123190000D02*
X173990000Y-123190000D01*
X176530000Y-123190000D02*
X176530000Y-120650000D01*
X173990000Y-123190000D02*
X173990000Y-120650000D01*
X182626000Y-103632000D02*
X182626000Y-109728000D01*
X180594000Y-103632000D02*
X180594000Y-109728000D01*
X181102000Y-110236000D02*
X182118000Y-110236000D01*
X181102000Y-103124000D02*
X182118000Y-103124000D01*
X182626000Y-103632000D02*
G75*
G03*
X182118000Y-103124000I-508001J-1D01*
G01*
X181102000Y-103124000D02*
G75*
G03*
X180594000Y-103632000I1J-508001D01*
G01*
X180594000Y-109728000D02*
G75*
G03*
X181102000Y-110236000I508001J1D01*
G01*
X182118000Y-110236000D02*
G75*
G03*
X182626000Y-109728000I-1J508001D01*
G01*
X148590000Y-129540000D02*
X148590000Y-132080000D01*
X227330000Y-124460000D02*
X125730000Y-124460000D01*
X186690000Y-129540000D02*
X186690000Y-132080000D01*
X128270000Y-127000000D02*
X125730000Y-127000000D01*
X214630000Y-129540000D02*
X214630000Y-132080000D01*
X219710000Y-129540000D02*
X219710000Y-132080000D01*
X126365000Y-121920000D02*
X128270000Y-121920000D01*
X173990000Y-129540000D02*
X173990000Y-132080000D01*
X171450000Y-129540000D02*
X171450000Y-132080000D01*
X163830000Y-129540000D02*
X163830000Y-132080000D01*
X128270000Y-121920000D02*
X128270000Y-124460000D01*
X199390000Y-129540000D02*
X199390000Y-132080000D01*
X212090000Y-129540000D02*
X212090000Y-132080000D01*
X224790000Y-129540000D02*
X224790000Y-132080000D01*
X194310000Y-129540000D02*
X194310000Y-132080000D01*
X166370000Y-129540000D02*
X166370000Y-132080000D01*
X217170000Y-129540000D02*
X217170000Y-132080000D01*
X191770000Y-129540000D02*
X191770000Y-132080000D01*
X143510000Y-129540000D02*
X143510000Y-132080000D01*
X204470000Y-129540000D02*
X204470000Y-132080000D01*
X133350000Y-129540000D02*
X133350000Y-132080000D01*
X201930000Y-129540000D02*
X201930000Y-132080000D01*
X151130000Y-129540000D02*
X151130000Y-132080000D01*
X128270000Y-127000000D02*
X128270000Y-132080000D01*
X189230000Y-129540000D02*
X189230000Y-132080000D01*
X140970000Y-129540000D02*
X140970000Y-132080000D01*
X153670000Y-129540000D02*
X153670000Y-132080000D01*
X184150000Y-129540000D02*
X184150000Y-132080000D01*
X179070000Y-129540000D02*
X179070000Y-132080000D01*
X158750000Y-129540000D02*
X158750000Y-132080000D01*
X130810000Y-129540000D02*
X130810000Y-132080000D01*
X125730000Y-129540000D02*
X227330000Y-129540000D01*
X196850000Y-129540000D02*
X196850000Y-132080000D01*
X156210000Y-129540000D02*
X156210000Y-132080000D01*
X125730000Y-122555000D02*
X125730000Y-132080000D01*
X168910000Y-129540000D02*
X168910000Y-132080000D01*
X207010000Y-129540000D02*
X207010000Y-132080000D01*
X176530000Y-129540000D02*
X176530000Y-132080000D01*
X181610000Y-129540000D02*
X181610000Y-132080000D01*
X146050000Y-129540000D02*
X146050000Y-132080000D01*
X135890000Y-129540000D02*
X135890000Y-132080000D01*
X161290000Y-129540000D02*
X161290000Y-132080000D01*
X227330000Y-124460000D02*
X227330000Y-132080000D01*
X138430000Y-129540000D02*
X138430000Y-132080000D01*
X222250000Y-129540000D02*
X222250000Y-132080000D01*
X125730000Y-122555000D02*
X126365000Y-121920000D01*
X209550000Y-129540000D02*
X209550000Y-132080000D01*
X183515000Y-104902000D02*
X225425000Y-104902000D01*
X225425000Y-118618000D02*
X183515000Y-118618000D01*
X183515000Y-118618000D02*
X183515000Y-104902000D01*
X225425000Y-104902000D02*
X225425000Y-118618000D01*
X184531000Y-111760000D02*
G75*
G03*
X183515000Y-110744000I-1016002J-2D01*
G01*
X183515000Y-112776000D02*
G75*
G03*
X184531000Y-111760000I-2J1016002D01*
G01*
X155575000Y-97790000D02*
X154940000Y-97155000D01*
X157480000Y-95885000D02*
X157480000Y-97155000D01*
X154940000Y-95885000D02*
X154940000Y-95250000D01*
X152400000Y-97790000D02*
X152400000Y-95250000D01*
X154940000Y-95885000D02*
X155575000Y-95250000D01*
X157480000Y-97155000D02*
X156845000Y-97790000D01*
X154940000Y-97790000D02*
X152400000Y-97790000D01*
X155575000Y-95250000D02*
X156845000Y-95250000D01*
X154940000Y-97790000D02*
X154940000Y-97155000D01*
X156845000Y-95250000D02*
X157480000Y-95885000D01*
X156845000Y-97790000D02*
X155575000Y-97790000D01*
X152400000Y-95250000D02*
X154940000Y-95250000D01*
X178054000Y-80772000D02*
X178054000Y-86868000D01*
X178562000Y-87376000D02*
X179578000Y-87376000D01*
X180086000Y-80772000D02*
X180086000Y-86868000D01*
X178562000Y-80264000D02*
X179578000Y-80264000D01*
X178562000Y-80264000D02*
G75*
G03*
X178054000Y-80772000I1J-508001D01*
G01*
X180086000Y-80772000D02*
G75*
G03*
X179578000Y-80264000I-508001J-1D01*
G01*
X178054000Y-86868000D02*
G75*
G03*
X178562000Y-87376000I508001J1D01*
G01*
X179578000Y-87376000D02*
G75*
G03*
X180086000Y-86868000I-1J508001D01*
G01*
X127254000Y-113792000D02*
X127254000Y-119888000D01*
X129286000Y-113792000D02*
X129286000Y-119888000D01*
X127762000Y-120396000D02*
X128778000Y-120396000D01*
X127762000Y-113284000D02*
X128778000Y-113284000D01*
X129286000Y-113792000D02*
G75*
G03*
X128778000Y-113284000I-508001J-1D01*
G01*
X128778000Y-120396000D02*
G75*
G03*
X129286000Y-119888000I-1J508001D01*
G01*
X127254000Y-119888000D02*
G75*
G03*
X127762000Y-120396000I508001J1D01*
G01*
X127762000Y-113284000D02*
G75*
G03*
X127254000Y-113792000I1J-508001D01*
G01*
X200660000Y-88138000D02*
X180340000Y-88138000D01*
X180340000Y-82042000D02*
X200660000Y-82042000D01*
X200660000Y-82042000D02*
X200660000Y-88138000D01*
X180340000Y-88138000D02*
X180340000Y-82042000D01*
X180340000Y-86106000D02*
G75*
G03*
X181356000Y-85090000I-2J1016002D01*
G01*
X181356000Y-85090000D02*
G75*
G03*
X180340000Y-84074000I-1016002J-2D01*
G01*
X189230000Y-120650000D02*
X212090000Y-120650000D01*
X212090000Y-123190000D02*
X189230000Y-123190000D01*
X189230000Y-123190000D02*
X189230000Y-120650000D01*
X212090000Y-120650000D02*
X212090000Y-123190000D01*
X191770000Y-123190000D02*
X191770000Y-120650000D01*
X149606000Y-86233000D02*
X149606000Y-86233000D01*
X149606000Y-81407000D02*
X148717000Y-81407000D01*
X149606000Y-86233000D02*
X149606000Y-81407000D01*
X149606000Y-86233000D02*
X148717000Y-86233000D01*
X149606000Y-83820000D02*
X149606000Y-83820000D01*
X147193000Y-81534000D02*
G75*
G03*
X147193000Y-86105998I762000J-2285999D01*
G01*
X145545345Y-83820000D02*
G75*
G03*
X147193000Y-86105999I2409653J-1D01*
G01*
X129540000Y-121158000D02*
X129540000Y-115062000D01*
X149860000Y-115062000D02*
X149860000Y-121158000D01*
X149860000Y-121158000D02*
X129540000Y-121158000D01*
X129540000Y-115062000D02*
X149860000Y-115062000D01*
X129540000Y-119126000D02*
G75*
G03*
X130556000Y-118110000I-2J1016002D01*
G01*
X130556000Y-118110000D02*
G75*
G03*
X129540000Y-117094000I-1016002J-2D01*
G01*
X150545800Y-120827800D02*
X152019000Y-122301000D01*
X155535000Y-120650000D02*
X150535000Y-120650000D01*
X154051000Y-121666000D02*
X154787600Y-122402600D01*
X154051000Y-122682000D02*
X152019000Y-122682000D01*
X154051000Y-122682000D02*
X154051000Y-120650000D01*
X150749000Y-120650000D02*
X152019000Y-121920000D01*
X154051000Y-122428000D02*
X154381200Y-122758200D01*
X154051000Y-120904000D02*
X155130500Y-121983500D01*
X152400000Y-122682000D02*
X152857200Y-123139200D01*
X151511000Y-120650000D02*
X152019000Y-121158000D01*
X154051000Y-121285000D02*
X154965400Y-122199400D01*
X152781000Y-122682000D02*
X153238200Y-123139200D01*
X150622000Y-121285000D02*
X152400000Y-123063000D01*
X153162000Y-122682000D02*
X153568400Y-123088400D01*
X152019000Y-122682000D02*
X152019000Y-120650000D01*
X155321000Y-120650000D02*
X155524200Y-120853200D01*
X154051000Y-122047000D02*
X154584400Y-122580400D01*
X154940000Y-120650000D02*
X155473400Y-121183400D01*
X151130000Y-120650000D02*
X152019000Y-121539000D01*
X153543000Y-122682000D02*
X153860500Y-122999500D01*
X154559000Y-120650000D02*
X155371800Y-121462800D01*
X150901400Y-121945400D02*
X151739600Y-122783600D01*
X154178000Y-120650000D02*
X155270200Y-121742200D01*
X153924000Y-122682000D02*
X154114500Y-122872500D01*
X155534360Y-120650000D02*
G75*
G03*
X155534360Y-120650000I-2499360J0D01*
G01*
X127762000Y-103124000D02*
X128778000Y-103124000D01*
X127762000Y-110236000D02*
X128778000Y-110236000D01*
X127254000Y-103632000D02*
X127254000Y-109728000D01*
X129286000Y-103632000D02*
X129286000Y-109728000D01*
X129286000Y-103632000D02*
G75*
G03*
X128778000Y-103124000I-508001J-1D01*
G01*
X128778000Y-110236000D02*
G75*
G03*
X129286000Y-109728000I-1J508001D01*
G01*
X127254000Y-109728000D02*
G75*
G03*
X127762000Y-110236000I508001J1D01*
G01*
X127762000Y-103124000D02*
G75*
G03*
X127254000Y-103632000I1J-508001D01*
G01*
X224155000Y-83820000D02*
X224155000Y-101600000D01*
X203835000Y-83820000D02*
X224155000Y-83820000D01*
X205740000Y-101600000D02*
X203835000Y-99695000D01*
X224155000Y-101600000D02*
X205740000Y-101600000D01*
X203835000Y-99695000D02*
X203835000Y-83820000D01*
X129540000Y-104902000D02*
X149860000Y-104902000D01*
X129540000Y-110998000D02*
X129540000Y-104902000D01*
X149860000Y-110998000D02*
X129540000Y-110998000D01*
X149860000Y-104902000D02*
X149860000Y-110998000D01*
X130556000Y-107950000D02*
G75*
G03*
X129540000Y-106934000I-1016002J-2D01*
G01*
X129540000Y-108966000D02*
G75*
G03*
X130556000Y-107950000I-2J1016002D01*
G01*
X203073000Y-92456000D02*
X202057000Y-92456000D01*
X203073000Y-85344000D02*
X202057000Y-85344000D01*
X201549000Y-91948000D02*
X201549000Y-85852000D01*
X203581000Y-91948000D02*
X203581000Y-85852000D01*
X201549000Y-91948000D02*
G75*
G03*
X202057000Y-92456000I508001J1D01*
G01*
X202057000Y-85344000D02*
G75*
G03*
X201549000Y-85852000I1J-508001D01*
G01*
X203581000Y-85852000D02*
G75*
G03*
X203073000Y-85344000I-508001J-1D01*
G01*
X203073000Y-92456000D02*
G75*
G03*
X203581000Y-91948000I-1J508001D01*
G01*
X151384000Y-80772000D02*
X151384000Y-86868000D01*
X151892000Y-87376000D02*
X152908000Y-87376000D01*
X153416000Y-80772000D02*
X153416000Y-86868000D01*
X151892000Y-80264000D02*
X152908000Y-80264000D01*
X152908000Y-87376000D02*
G75*
G03*
X153416000Y-86868000I-1J508001D01*
G01*
X153416000Y-80772000D02*
G75*
G03*
X152908000Y-80264000I-508001J-1D01*
G01*
X151384000Y-86868000D02*
G75*
G03*
X151892000Y-87376000I508001J1D01*
G01*
X151892000Y-80264000D02*
G75*
G03*
X151384000Y-80772000I1J-508001D01*
G01*
X168148000Y-122936000D02*
X162052000Y-122936000D01*
X161544000Y-121412000D02*
X161544000Y-122428000D01*
X168148000Y-120904000D02*
X162052000Y-120904000D01*
X168656000Y-121412000D02*
X168656000Y-122428000D01*
X168148000Y-122936000D02*
G75*
G03*
X168656000Y-122428000I-1J508001D01*
G01*
X162052000Y-120904000D02*
G75*
G03*
X161544000Y-121412000I1J-508001D01*
G01*
X168656000Y-121412000D02*
G75*
G03*
X168148000Y-120904000I-508001J-1D01*
G01*
X161544000Y-122428000D02*
G75*
G03*
X162052000Y-122936000I508001J1D01*
G01*
X177800000Y-97790000D02*
X177800000Y-120650000D01*
X156845000Y-120650000D02*
X154940000Y-118745000D01*
X154940000Y-97790000D02*
X177800000Y-97790000D01*
X177800000Y-120650000D02*
X156845000Y-120650000D01*
X154940000Y-118745000D02*
X154940000Y-97790000D01*
G36*
X143105618Y-81145206D02*
G01*
X143412258Y-81145206D01*
X143412258Y-79203154D01*
X144434391Y-79203154D01*
X144434391Y-80073608D01*
X144431094Y-80484300D01*
X144414718Y-80804163D01*
X144375537Y-81044525D01*
X144303825Y-81216716D01*
X144189857Y-81332064D01*
X144023905Y-81401898D01*
X143796245Y-81437548D01*
X143497149Y-81450341D01*
X143251214Y-81451766D01*
X142950003Y-81448985D01*
X142730749Y-81439326D01*
X142573310Y-81420698D01*
X142457542Y-81391008D01*
X142390125Y-81362330D01*
X142270795Y-81291323D01*
X142180859Y-81203852D01*
X142116330Y-81085380D01*
X142073218Y-80921375D01*
X142047533Y-80697301D01*
X142035287Y-80398624D01*
X142032458Y-80059190D01*
X142032379Y-79203154D01*
X143105618Y-79203154D01*
X143105618Y-81145206D01*
G37*
G36*
X134736906Y-79203439D02*
G01*
X135133289Y-79206183D01*
X135441864Y-79215712D01*
X135676938Y-79234378D01*
X135852821Y-79264533D01*
X135983821Y-79308527D01*
X136084247Y-79368714D01*
X136158910Y-79437173D01*
X136227250Y-79524916D01*
X136264979Y-79626019D01*
X136280581Y-79773440D01*
X136282882Y-79918647D01*
X136277630Y-80116618D01*
X136256141Y-80245768D01*
X136209813Y-80339205D01*
X136157360Y-80401771D01*
X136031837Y-80535383D01*
X136246796Y-80968812D01*
X136339750Y-81158692D01*
X136412474Y-81311919D01*
X136454935Y-81407104D01*
X136461755Y-81427044D01*
X136414384Y-81437787D01*
X136287200Y-81446186D01*
X136102595Y-81451075D01*
X135984717Y-81451846D01*
X135507679Y-81451846D01*
X135294777Y-81003844D01*
X135197977Y-80795344D01*
X135136100Y-80637941D01*
X135101343Y-80496043D01*
X135085903Y-80334060D01*
X135081976Y-80116402D01*
X135081876Y-80032818D01*
X135081876Y-79509794D01*
X134775236Y-79509794D01*
X134775236Y-81451846D01*
X133804210Y-81451846D01*
X133804210Y-79203154D01*
X134736906Y-79203439D01*
G37*
G36*
X146317674Y-79209761D02*
G01*
X146478982Y-79220858D01*
X146596954Y-79242172D01*
X146691163Y-79275207D01*
X146708092Y-79282981D01*
X146882917Y-79411011D01*
X147001485Y-79587439D01*
X147040830Y-79762789D01*
X147034348Y-79810431D01*
X147002543Y-79840926D01*
X146926873Y-79858073D01*
X146788798Y-79865672D01*
X146569777Y-79867523D01*
X146529763Y-79867540D01*
X146018697Y-79867540D01*
X146018697Y-79688667D01*
X146010975Y-79569330D01*
X145967034Y-79519967D01*
X145855711Y-79509833D01*
X145837385Y-79509794D01*
X145656073Y-79509794D01*
X145671288Y-79829210D01*
X145686504Y-80148627D01*
X146197570Y-80176352D01*
X146424865Y-80192295D01*
X146620457Y-80212619D01*
X146757273Y-80234177D01*
X146799963Y-80246429D01*
X146915870Y-80351049D01*
X146998398Y-80522882D01*
X147042047Y-80730805D01*
X147041319Y-80943692D01*
X146990715Y-81130419D01*
X146964453Y-81177499D01*
X146876957Y-81280843D01*
X146759776Y-81355708D01*
X146597233Y-81405922D01*
X146373651Y-81435313D01*
X146073350Y-81447711D01*
X145854242Y-81448606D01*
X145592783Y-81444306D01*
X145361632Y-81434857D01*
X145183519Y-81421582D01*
X145081176Y-81405808D01*
X145073224Y-81403089D01*
X144903318Y-81284973D01*
X144770116Y-81104425D01*
X144706767Y-80922555D01*
X144676550Y-80736353D01*
X145660950Y-80736353D01*
X145660950Y-80940779D01*
X145666365Y-81071667D01*
X145699801Y-81129834D01*
X145787042Y-81144749D01*
X145839824Y-81145206D01*
X146018697Y-81145206D01*
X146018697Y-80480820D01*
X145622620Y-80477935D01*
X145403591Y-80468505D01*
X145200295Y-80446411D01*
X145054514Y-80416297D01*
X145047671Y-80414052D01*
X144871836Y-80305581D01*
X144755482Y-80135718D01*
X144702352Y-79928749D01*
X144716188Y-79708961D01*
X144800735Y-79500640D01*
X144889612Y-79388587D01*
X145049347Y-79228707D01*
X145786759Y-79212206D01*
X146093457Y-79207378D01*
X146317674Y-79209761D01*
G37*
G36*
X140281976Y-79203439D02*
G01*
X140679847Y-79206372D01*
X140989019Y-79216630D01*
X141222900Y-79236816D01*
X141394895Y-79269537D01*
X141518411Y-79317400D01*
X141606854Y-79383008D01*
X141673630Y-79468969D01*
X141677100Y-79474600D01*
X141760736Y-79684675D01*
X141775649Y-79904516D01*
X141722975Y-80100972D01*
X141652206Y-80201252D01*
X141527567Y-80325892D01*
X141684131Y-80482456D01*
X141782078Y-80594163D01*
X141820965Y-80696671D01*
X141817834Y-80840541D01*
X141814690Y-80869742D01*
X141743733Y-81113573D01*
X141595259Y-81291819D01*
X141372797Y-81400251D01*
X141371788Y-81400532D01*
X141261173Y-81417220D01*
X141069248Y-81431634D01*
X140816908Y-81442794D01*
X140525048Y-81449723D01*
X140281976Y-81451561D01*
X139374834Y-81451846D01*
X139374834Y-81145206D01*
X140345860Y-81145206D01*
X140652500Y-81145206D01*
X140652500Y-79509794D01*
X140345860Y-79509794D01*
X140345860Y-81145206D01*
X139374834Y-81145206D01*
X139374834Y-79203154D01*
X140281976Y-79203439D01*
G37*
G36*
X138222714Y-79211650D02*
G01*
X138514222Y-79241480D01*
X138727719Y-79299153D01*
X138874768Y-79391180D01*
X138966929Y-79524072D01*
X139015763Y-79704339D01*
X139030837Y-79872832D01*
X139042640Y-80148627D01*
X138544351Y-80163254D01*
X138046061Y-80177881D01*
X138046061Y-79509794D01*
X137688314Y-79509794D01*
X137688314Y-81145206D01*
X138046061Y-81145206D01*
X138046061Y-80480820D01*
X139082267Y-80480820D01*
X139047848Y-80773668D01*
X139009502Y-80997774D01*
X138945538Y-81167489D01*
X138843123Y-81289940D01*
X138689423Y-81372258D01*
X138471605Y-81421569D01*
X138176835Y-81445002D01*
X137830499Y-81449845D01*
X137470181Y-81442808D01*
X137205928Y-81423796D01*
X137032239Y-81392333D01*
X136988905Y-81377043D01*
X136869320Y-81309725D01*
X136782481Y-81216988D01*
X136723571Y-81083169D01*
X136687774Y-80892603D01*
X136670273Y-80629626D01*
X136666182Y-80327500D01*
X136671977Y-79967799D01*
X136697471Y-79693991D01*
X136754827Y-79494439D01*
X136856208Y-79357509D01*
X137013778Y-79271568D01*
X137239700Y-79224981D01*
X137546137Y-79206113D01*
X137841634Y-79203154D01*
X138222714Y-79211650D01*
G37*
X129822439Y-80177681D02*
X127347481Y-82652639D01*
X132121385Y-80001668D02*
X134607120Y-82487403D01*
X133888699Y-81768982D02*
X133703706Y-81953975D01*
X130883906Y-81239147D02*
X129822439Y-80177681D01*
X130515715Y-85141966D02*
X132311766Y-83345915D01*
X128938782Y-86718899D02*
X129123775Y-86533906D01*
X127347481Y-82652639D02*
X128408947Y-83714106D01*
X132121385Y-80001668D02*
X127171468Y-84951585D01*
X127171468Y-84951585D02*
X129657203Y-87437320D01*
X138557000Y-82804000D02*
X144653000Y-82804000D01*
X138049000Y-84328000D02*
X138049000Y-83312000D01*
X138557000Y-84836000D02*
X144653000Y-84836000D01*
X145161000Y-84328000D02*
X145161000Y-83312000D01*
X138049000Y-84328000D02*
G75*
G03*
X138557000Y-84836000I508001J1D01*
G01*
X144653000Y-84836000D02*
G75*
G03*
X145161000Y-84328000I-1J508001D01*
G01*
X138557000Y-82804000D02*
G75*
G03*
X138049000Y-83312000I1J-508001D01*
G01*
X145161000Y-83312000D02*
G75*
G03*
X144653000Y-82804000I-508001J-1D01*
G01*
X147320000Y-102235000D02*
X135255000Y-102235000D01*
X135890000Y-89535000D02*
X147320000Y-89535000D01*
X135255000Y-90170000D02*
X135255000Y-102235000D01*
X147955000Y-101600000D02*
X147955000Y-90170000D01*
X135255000Y-97155000D02*
G75*
G03*
X135255000Y-94615000I0J1270000D01*
G01*
X147320000Y-102235000D02*
G75*
G03*
X147955000Y-101600000I1J634999D01*
G01*
X147955000Y-90170000D02*
G75*
G03*
X147320000Y-89535000I-634999J1D01*
G01*
X135890000Y-89535000D02*
G75*
G03*
X135255000Y-90170000I-1J-634999D01*
G01*
X207645000Y-80010000D02*
X208915000Y-80010000D01*
X212090000Y-81915000D02*
X211455000Y-82550000D01*
X207010000Y-80645000D02*
X207010000Y-80010000D01*
X212090000Y-80645000D02*
X212090000Y-81915000D01*
X204470000Y-80010000D02*
X207010000Y-80010000D01*
X209550000Y-80645000D02*
X210185000Y-80010000D01*
X210185000Y-80010000D02*
X211455000Y-80010000D01*
X208915000Y-80010000D02*
X209550000Y-80645000D01*
X209550000Y-81915000D02*
X208915000Y-82550000D01*
X210185000Y-82550000D02*
X209550000Y-81915000D01*
X207645000Y-82550000D02*
X207010000Y-81915000D01*
X207010000Y-80645000D02*
X207645000Y-80010000D01*
X211455000Y-82550000D02*
X210185000Y-82550000D01*
X208915000Y-82550000D02*
X207645000Y-82550000D01*
X204470000Y-82550000D02*
X204470000Y-80010000D01*
X211455000Y-80010000D02*
X212090000Y-80645000D01*
X207010000Y-82550000D02*
X207010000Y-81915000D01*
X207010000Y-82550000D02*
X204470000Y-82550000D01*
X156845000Y-95250000D02*
X155575000Y-95250000D01*
X156845000Y-92710000D02*
X157480000Y-93345000D01*
X157480000Y-93345000D02*
X157480000Y-94615000D01*
X157480000Y-94615000D02*
X156845000Y-95250000D01*
X155575000Y-95250000D02*
X154940000Y-94615000D01*
X154940000Y-95250000D02*
X154940000Y-94615000D01*
X154940000Y-95250000D02*
X152400000Y-95250000D01*
X152400000Y-95250000D02*
X152400000Y-92710000D01*
X154940000Y-93345000D02*
X155575000Y-92710000D01*
X155575000Y-92710000D02*
X156845000Y-92710000D01*
X154940000Y-93345000D02*
X154940000Y-92710000D01*
X152400000Y-92710000D02*
X154940000Y-92710000D01*
X178562000Y-97536000D02*
X179578000Y-97536000D01*
X180086000Y-90932000D02*
X180086000Y-97028000D01*
X178054000Y-90932000D02*
X178054000Y-97028000D01*
X178562000Y-90424000D02*
X179578000Y-90424000D01*
X178562000Y-90424000D02*
G75*
G03*
X178054000Y-90932000I1J-508001D01*
G01*
X178054000Y-97028000D02*
G75*
G03*
X178562000Y-97536000I508001J1D01*
G01*
X180086000Y-90932000D02*
G75*
G03*
X179578000Y-90424000I-508001J-1D01*
G01*
X179578000Y-97536000D02*
G75*
G03*
X180086000Y-97028000I-1J508001D01*
G01*
M02*
