M48
; DRILL file {KiCad (6.0.2)} date Mon Jun  9 16:09:52 2025
; FORMAT={-:-/ absolute / inch / decimal}
; #@! TF.CreationDate,2025-06-09T16:09:52-07:00
; #@! TF.GenerationSoftware,Kicad,Pcbnew,(6.0.2)
; #@! TF.FileFunction,Plated,1,2,PTH
FMAT,2
INCH
; #@! TA.AperFunction,Plated,PTH,ViaDrill
T1C0.0157
; #@! TA.AperFunction,Plated,PTH,ComponentDrill
T2C0.0315
; #@! TA.AperFunction,Plated,PTH,ComponentDrill
T3C0.0320
; #@! TA.AperFunction,Plated,PTH,ComponentDrill
T4C0.0394
; #@! TA.AperFunction,Plated,PTH,ComponentDrill
T5C0.0394
; #@! TA.AperFunction,Plated,PTH,ComponentDrill
T6C0.0400
; #@! TA.AperFunction,Plated,PTH,ComponentDrill
T7C0.0591
%
G90
G05
T1
X5.05Y-5.1125
X5.1875Y-4.3
X5.325Y-4.0125
X5.425Y-4.3
X5.4375Y-4.75
X5.4875Y-4.45
X5.5125Y-3.6875
X5.575Y-3.6875
X5.75Y-4.5875
X5.7736Y-4.2986
X5.8Y-3.625
X5.8125Y-3.9125
X5.8215Y-4.35
X5.85Y-4.2375
X5.85Y-4.2875
X5.8875Y-4.2618
X5.9125Y-4.1875
X5.9361Y-4.1514
X5.95Y-4.075
X5.9875Y-4.1125
X6.0Y-3.975
X6.0375Y-4.0375
X6.0486Y-4.8861
X6.05Y-3.975
X6.2375Y-4.85
X6.25Y-3.8375
X6.2625Y-4.6884
X6.3514Y-3.7764
X6.4Y-3.8215
X6.425Y-4.375
X6.45Y-3.6965
X6.5Y-3.1785
X6.5104Y-4.7257
X6.5688Y-4.6
X6.575Y-4.3382
X6.65Y-3.8125
X6.6882Y-4.45
X6.7875Y-3.3875
X6.8625Y-3.425
X6.888Y-3.5378
X6.9375Y-3.2875
X6.9875Y-4.2625
X7.1625Y-3.35
X7.2375Y-4.5236
X7.275Y-4.5413
X7.3625Y-3.6625
X7.4Y-4.5937
X7.4484Y-4.506
X7.4795Y-4.592
X7.5111Y-4.4889
X7.5625Y-3.344
X7.5625Y-3.4
X7.6Y-4.4
X7.6Y-4.459
X7.65Y-4.575
X7.6625Y-3.3125
X7.7Y-4.3625
X7.75Y-4.6135
X7.7875Y-3.8125
X7.8Y-4.4
X7.85Y-4.6125
X7.9125Y-4.2125
X7.95Y-4.3625
X7.9875Y-4.2875
X8.025Y-4.525
X8.0625Y-4.325
X8.0625Y-4.5625
X8.1Y-4.2125
X8.1375Y-4.475
X8.15Y-4.6
X8.1639Y-4.2889
X8.1735Y-3.7362
X8.2Y-4.25
X8.2285Y-4.5125
X8.2625Y-4.25
X8.3Y-4.2125
X8.425Y-4.175
X8.475Y-4.425
T2
X6.025Y-4.7106
X6.025Y-4.7894
T3
X5.05Y-4.1
X5.05Y-4.3
X5.05Y-4.5
X5.05Y-4.7
X5.15Y-4.5
X5.15Y-4.8
X5.2Y-4.1
X5.2Y-4.4
X5.25Y-4.5
X5.25Y-4.8
X5.3Y-4.1
X5.3Y-4.4
X5.35Y-4.5
X5.35Y-4.8
X5.4Y-4.1
X5.4Y-4.4
X5.425Y-3.625
X5.425Y-3.925
X5.45Y-4.5
X5.45Y-4.8
X5.475Y-3.3
X5.475Y-3.45
X5.5Y-4.1
X5.5Y-4.4
X5.55Y-4.5
X5.55Y-4.8
X5.6Y-4.1
X5.6Y-4.4
X5.65Y-4.5
X5.65Y-4.8
X5.675Y-3.3
X5.675Y-3.45
X5.7Y-4.1
X5.7Y-4.4
X5.725Y-3.625
X5.725Y-3.925
X5.75Y-4.5
X5.75Y-4.8
X5.8Y-4.1
X5.8Y-4.4
X5.825Y-3.2
X5.825Y-3.3
X5.825Y-3.4
X5.85Y-4.5
X5.85Y-4.8
X6.0Y-3.2
X6.0Y-3.4
X6.15Y-3.2
X6.15Y-3.5
X6.2Y-4.05
X6.2Y-4.15
X6.2Y-4.25
X6.2Y-4.35
X6.2Y-4.45
X6.2Y-4.55
X6.25Y-3.2
X6.25Y-3.5
X6.3Y-3.95
X6.3Y-4.05
X6.3Y-4.15
X6.3Y-4.25
X6.3Y-4.35
X6.3Y-4.45
X6.3Y-4.55
X6.3Y-4.65
X6.35Y-3.2
X6.35Y-3.5
X6.4Y-3.95
X6.4Y-4.05
X6.4Y-4.55
X6.4Y-4.65
X6.4Y-4.8
X6.45Y-3.2
X6.45Y-3.5
X6.5Y-3.95
X6.5Y-4.05
X6.5Y-4.55
X6.5Y-4.65
X6.55Y-3.2
X6.55Y-3.5
X6.6Y-3.95
X6.6Y-4.05
X6.6Y-4.55
X6.6Y-4.65
X6.6Y-4.8
X6.65Y-3.2
X6.65Y-3.5
X6.7Y-3.95
X6.7Y-4.05
X6.7Y-4.55
X6.7Y-4.65
X6.75Y-3.2
X6.75Y-3.5
X6.8Y-3.95
X6.8Y-4.05
X6.8Y-4.15
X6.8Y-4.25
X6.8Y-4.35
X6.8Y-4.45
X6.8Y-4.55
X6.8Y-4.65
X6.9Y-4.05
X6.9Y-4.15
X6.9Y-4.25
X6.9Y-4.35
X6.9Y-4.45
X6.9Y-4.55
X6.9Y-4.8
X7.0Y-4.8
X7.05Y-3.2
X7.05Y-3.4
X7.05Y-3.6
X7.05Y-3.8
X7.1Y-4.8
X7.15Y-3.6
X7.15Y-3.9
X7.15Y-4.1
X7.15Y-4.3
X7.2Y-3.2
X7.2Y-3.5
X7.2Y-4.8
X7.25Y-3.6
X7.25Y-3.9
X7.3Y-3.2
X7.3Y-3.5
X7.3Y-4.1
X7.3Y-4.7
X7.3Y-4.8
X7.35Y-3.6
X7.35Y-3.9
X7.4Y-3.2
X7.4Y-3.5
X7.4Y-4.1
X7.4Y-4.7
X7.4Y-4.8
X7.45Y-3.6
X7.45Y-3.9
X7.5Y-3.2
X7.5Y-3.5
X7.5Y-4.1
X7.5Y-4.7
X7.5Y-4.8
X7.55Y-3.6
X7.55Y-3.9
X7.6Y-3.2
X7.6Y-3.5
X7.6Y-4.1
X7.6Y-4.7
X7.6Y-4.8
X7.65Y-3.6
X7.65Y-3.9
X7.7Y-3.2
X7.7Y-3.5
X7.7Y-4.1
X7.7Y-4.7
X7.7Y-4.8
X7.75Y-3.6
X7.75Y-3.9
X7.8Y-3.2
X7.8Y-3.5
X7.8Y-4.1
X7.8Y-4.7
X7.8Y-4.8
X7.85Y-3.6
X7.85Y-3.9
X7.9Y-4.1
X7.9Y-4.7
X7.9Y-4.8
X7.975Y-3.4
X7.975Y-3.6
X8.0Y-4.1
X8.0Y-4.7
X8.0Y-4.8
X8.1Y-4.1
X8.1Y-4.7
X8.1Y-4.8
X8.125Y-3.5
X8.125Y-3.6
X8.125Y-3.7
X8.125Y-3.8
X8.2Y-4.1
X8.2Y-4.7
X8.2Y-4.8
X8.225Y-3.4
X8.225Y-3.5
X8.225Y-3.6
X8.225Y-3.7
X8.225Y-3.8
X8.225Y-3.9
X8.3Y-4.1
X8.3Y-4.7
X8.3Y-4.8
X8.325Y-3.4
X8.325Y-3.5
X8.325Y-3.8
X8.325Y-3.9
X8.4Y-4.1
X8.4Y-4.7
X8.425Y-3.4
X8.425Y-3.5
X8.425Y-3.8
X8.425Y-3.9
X8.5Y-4.1
X8.5Y-4.7
X8.525Y-3.4
X8.525Y-3.5
X8.525Y-3.8
X8.525Y-3.9
X8.6Y-4.1
X8.6Y-4.7
X8.625Y-3.4
X8.625Y-3.5
X8.625Y-3.6
X8.625Y-3.7
X8.625Y-3.8
X8.625Y-3.9
X8.7Y-4.1
X8.7Y-4.7
X8.725Y-3.5
X8.725Y-3.6
X8.725Y-3.7
X8.725Y-3.8
X8.8Y-4.1
X8.8Y-4.7
T4
X8.1Y-3.2
X8.2Y-3.2
X8.3Y-3.2
T5
X5.1069Y-3.3751
X5.2322Y-3.2499
T6
X5.0Y-4.95
X5.0Y-5.05
X5.1Y-4.95
X5.1Y-5.05
X5.2Y-4.95
X5.2Y-5.05
X5.3Y-4.95
X5.3Y-5.05
X5.4Y-4.95
X5.4Y-5.05
X5.5Y-4.95
X5.5Y-5.05
X5.6Y-4.95
X5.6Y-5.05
X5.7Y-4.95
X5.7Y-5.05
X5.8Y-4.95
X5.8Y-5.05
X5.9Y-4.95
X5.9Y-5.05
X6.0Y-4.95
X6.0Y-5.05
X6.05Y-3.7
X6.05Y-3.8
X6.1Y-4.95
X6.1Y-5.05
X6.15Y-3.7
X6.15Y-3.8
X6.2Y-4.95
X6.2Y-5.05
X6.3Y-4.95
X6.3Y-5.05
X6.4Y-4.95
X6.4Y-5.05
X6.5Y-4.95
X6.5Y-5.05
X6.6Y-4.95
X6.6Y-5.05
X6.7Y-4.95
X6.7Y-5.05
X6.8Y-4.95
X6.8Y-5.05
X6.9Y-4.95
X6.9Y-5.05
X7.0Y-4.95
X7.0Y-5.05
X7.1Y-4.95
X7.1Y-5.05
X7.2Y-4.95
X7.2Y-5.05
X7.3Y-4.95
X7.3Y-5.05
X7.4Y-4.95
X7.4Y-5.05
X7.5Y-4.95
X7.5Y-5.05
X7.6Y-4.95
X7.6Y-5.05
X7.7Y-4.95
X7.7Y-5.05
X7.8Y-4.95
X7.8Y-5.05
X7.9Y-4.95
X7.9Y-5.05
X8.0Y-4.95
X8.0Y-5.05
X8.1Y-4.95
X8.1Y-5.05
X8.2Y-4.95
X8.2Y-5.05
X8.3Y-4.95
X8.3Y-5.05
X8.4Y-4.95
X8.4Y-5.05
X8.5Y-4.95
X8.5Y-5.05
X8.6Y-4.95
X8.6Y-5.05
X8.7Y-4.95
X8.7Y-5.05
X8.8Y-4.95
X8.8Y-5.05
X8.9Y-4.95
X8.9Y-5.05
T7
X5.1417Y-3.4795
X5.3366Y-3.2847
T0
M30
