G04 #@! TF.GenerationSoftware,KiCad,Pcbnew,(6.0.2)*
G04 #@! TF.CreationDate,2025-06-09T16:09:45-07:00*
G04 #@! TF.ProjectId,z80-cpu-mem,7a38302d-6370-4752-9d6d-656d2e6b6963,1.0*
G04 #@! TF.SameCoordinates,Original*
G04 #@! TF.FileFunction,Soldermask,Top*
G04 #@! TF.FilePolarity,Negative*
%FSLAX46Y46*%
G04 Gerber Fmt 4.6, Leading zero omitted, Abs format (unit mm)*
G04 Created by KiCad (PCBNEW (6.0.2)) date 2025-06-09 16:09:45*
%MOMM*%
%LPD*%
G01*
G04 APERTURE LIST*
%ADD10R,1.397000X1.397000*%
%ADD11C,1.397000*%
%ADD12R,1.524000X1.524000*%
%ADD13C,1.524000*%
%ADD14C,3.200000*%
%ADD15R,1.490980X1.490980*%
%ADD16C,1.490980*%
%ADD17C,1.800860*%
%ADD18C,2.499360*%
%ADD19R,1.440000X1.440000*%
%ADD20C,1.440000*%
G04 APERTURE END LIST*
D10*
X156210000Y-88900000D03*
D11*
X158750000Y-88900000D03*
X161290000Y-88900000D03*
X163830000Y-88900000D03*
X166370000Y-88900000D03*
X168910000Y-88900000D03*
X171450000Y-88900000D03*
X171450000Y-81280000D03*
X168910000Y-81280000D03*
X166370000Y-81280000D03*
X163830000Y-81280000D03*
X161290000Y-81280000D03*
X158750000Y-81280000D03*
X156210000Y-81280000D03*
D10*
X181610000Y-99060000D03*
D11*
X184150000Y-99060000D03*
X186690000Y-99060000D03*
X189230000Y-99060000D03*
X191770000Y-99060000D03*
X194310000Y-99060000D03*
X196850000Y-99060000D03*
X199390000Y-99060000D03*
X199390000Y-91440000D03*
X196850000Y-91440000D03*
X194310000Y-91440000D03*
X191770000Y-91440000D03*
X189230000Y-91440000D03*
X186690000Y-91440000D03*
X184150000Y-91440000D03*
X181610000Y-91440000D03*
X139065000Y-87630000D03*
X144145000Y-87630000D03*
D10*
X175260000Y-121920000D03*
D11*
X177800000Y-121920000D03*
X180340000Y-121920000D03*
X182880000Y-121920000D03*
X185420000Y-121920000D03*
X187960000Y-121920000D03*
X181610000Y-104140000D03*
X181610000Y-109220000D03*
D12*
X127000000Y-128270000D03*
D13*
X129540000Y-128270000D03*
X132080000Y-128270000D03*
X134620000Y-128270000D03*
X137160000Y-128270000D03*
X139700000Y-128270000D03*
X142240000Y-128270000D03*
X144780000Y-128270000D03*
X147320000Y-128270000D03*
X149860000Y-128270000D03*
X152400000Y-128270000D03*
X154940000Y-128270000D03*
X157480000Y-128270000D03*
X160020000Y-128270000D03*
X162560000Y-128270000D03*
X165100000Y-128270000D03*
X167640000Y-128270000D03*
X170180000Y-128270000D03*
X172720000Y-128270000D03*
X175260000Y-128270000D03*
X177800000Y-128270000D03*
X180340000Y-128270000D03*
X182880000Y-128270000D03*
X185420000Y-128270000D03*
X187960000Y-128270000D03*
X190500000Y-128270000D03*
X193040000Y-128270000D03*
X195580000Y-128270000D03*
X198120000Y-128270000D03*
X200660000Y-128270000D03*
X203200000Y-128270000D03*
X205740000Y-128270000D03*
X208280000Y-128270000D03*
X210820000Y-128270000D03*
X213360000Y-128270000D03*
X215900000Y-128270000D03*
X218440000Y-128270000D03*
X220980000Y-128270000D03*
X223520000Y-128270000D03*
X226060000Y-128270000D03*
X127000000Y-125730000D03*
X129540000Y-125730000D03*
X132080000Y-125730000D03*
X134620000Y-125730000D03*
X137160000Y-125730000D03*
X139700000Y-125730000D03*
X142240000Y-125730000D03*
X144780000Y-125730000D03*
X147320000Y-125730000D03*
X149860000Y-125730000D03*
X152400000Y-125730000D03*
X154940000Y-125730000D03*
X157480000Y-125730000D03*
X160020000Y-125730000D03*
X162560000Y-125730000D03*
X165100000Y-125730000D03*
X167640000Y-125730000D03*
X170180000Y-125730000D03*
X172720000Y-125730000D03*
X175260000Y-125730000D03*
X177800000Y-125730000D03*
X180340000Y-125730000D03*
X182880000Y-125730000D03*
X185420000Y-125730000D03*
X187960000Y-125730000D03*
X190500000Y-125730000D03*
X193040000Y-125730000D03*
X195580000Y-125730000D03*
X198120000Y-125730000D03*
X200660000Y-125730000D03*
X203200000Y-125730000D03*
X205740000Y-125730000D03*
X208280000Y-125730000D03*
X210820000Y-125730000D03*
X213360000Y-125730000D03*
X215900000Y-125730000D03*
X218440000Y-125730000D03*
X220980000Y-125730000D03*
X223520000Y-125730000D03*
X226060000Y-125730000D03*
D10*
X185420000Y-119380000D03*
D11*
X187960000Y-119380000D03*
X190500000Y-119380000D03*
X193040000Y-119380000D03*
X195580000Y-119380000D03*
X198120000Y-119380000D03*
X200660000Y-119380000D03*
X203200000Y-119380000D03*
X205740000Y-119380000D03*
X208280000Y-119380000D03*
X210820000Y-119380000D03*
X213360000Y-119380000D03*
X215900000Y-119380000D03*
X218440000Y-119380000D03*
X220980000Y-119380000D03*
X223520000Y-119380000D03*
X223520000Y-104140000D03*
X220980000Y-104140000D03*
X218440000Y-104140000D03*
X215900000Y-104140000D03*
X213360000Y-104140000D03*
X210820000Y-104140000D03*
X208280000Y-104140000D03*
X205740000Y-104140000D03*
X203200000Y-104140000D03*
X200660000Y-104140000D03*
X198120000Y-104140000D03*
X195580000Y-104140000D03*
X193040000Y-104140000D03*
X190500000Y-104140000D03*
X187960000Y-104140000D03*
X185420000Y-104140000D03*
D12*
X153670000Y-96520000D03*
D13*
X156210000Y-96520000D03*
D11*
X179070000Y-91440000D03*
X179070000Y-96520000D03*
X128270000Y-104140000D03*
X128270000Y-109220000D03*
D14*
X130810000Y-96520000D03*
D10*
X182880000Y-88900000D03*
D11*
X185420000Y-88900000D03*
X187960000Y-88900000D03*
X190500000Y-88900000D03*
X193040000Y-88900000D03*
X195580000Y-88900000D03*
X198120000Y-88900000D03*
X198120000Y-81280000D03*
X195580000Y-81280000D03*
X193040000Y-81280000D03*
X190500000Y-81280000D03*
X187960000Y-81280000D03*
X185420000Y-81280000D03*
X182880000Y-81280000D03*
D10*
X190500000Y-121920000D03*
D11*
X193040000Y-121920000D03*
X195580000Y-121920000D03*
X198120000Y-121920000D03*
X200660000Y-121920000D03*
X203200000Y-121920000D03*
X205740000Y-121920000D03*
X208280000Y-121920000D03*
X210820000Y-121920000D03*
D10*
X147955000Y-86360000D03*
D11*
X147955000Y-83820000D03*
X147955000Y-81280000D03*
D10*
X130810000Y-121920000D03*
D11*
X133350000Y-121920000D03*
X135890000Y-121920000D03*
X138430000Y-121920000D03*
X140970000Y-121920000D03*
X143510000Y-121920000D03*
X146050000Y-121920000D03*
X148590000Y-121920000D03*
X148590000Y-114300000D03*
X146050000Y-114300000D03*
X143510000Y-114300000D03*
X140970000Y-114300000D03*
X138430000Y-114300000D03*
X135890000Y-114300000D03*
X133350000Y-114300000D03*
X130810000Y-114300000D03*
D15*
X153035000Y-119649240D03*
D16*
X153035000Y-121650760D03*
D11*
X128270000Y-114300000D03*
X128270000Y-119380000D03*
D10*
X208915000Y-91440000D03*
D11*
X206375000Y-93980000D03*
X208915000Y-93980000D03*
X206375000Y-96520000D03*
X208915000Y-99060000D03*
X208915000Y-96520000D03*
X211455000Y-99060000D03*
X211455000Y-96520000D03*
X213995000Y-99060000D03*
X213995000Y-96520000D03*
X216535000Y-99060000D03*
X216535000Y-96520000D03*
X219075000Y-99060000D03*
X221615000Y-96520000D03*
X219075000Y-96520000D03*
X221615000Y-93980000D03*
X219075000Y-93980000D03*
X221615000Y-91440000D03*
X219075000Y-91440000D03*
X221615000Y-88900000D03*
X219075000Y-86360000D03*
X219075000Y-88900000D03*
X216535000Y-86360000D03*
X216535000Y-88900000D03*
X213995000Y-86360000D03*
X213995000Y-88900000D03*
X211455000Y-86360000D03*
X211455000Y-88900000D03*
X208915000Y-86360000D03*
X206375000Y-88900000D03*
X208915000Y-88900000D03*
X206375000Y-91440000D03*
D10*
X132080000Y-111760000D03*
D11*
X134620000Y-111760000D03*
X137160000Y-111760000D03*
X139700000Y-111760000D03*
X142240000Y-111760000D03*
X144780000Y-111760000D03*
X147320000Y-111760000D03*
X147320000Y-104140000D03*
X144780000Y-104140000D03*
X142240000Y-104140000D03*
X139700000Y-104140000D03*
X137160000Y-104140000D03*
X134620000Y-104140000D03*
X132080000Y-104140000D03*
X202565000Y-91440000D03*
X202565000Y-86360000D03*
X152400000Y-81280000D03*
X152400000Y-86360000D03*
X167640000Y-121920000D03*
X162560000Y-121920000D03*
D10*
X160020000Y-107950000D03*
D11*
X157480000Y-110490000D03*
X160020000Y-110490000D03*
X157480000Y-113030000D03*
X160020000Y-113030000D03*
X157480000Y-115570000D03*
X160020000Y-118110000D03*
X160020000Y-115570000D03*
X162560000Y-118110000D03*
X162560000Y-115570000D03*
X165100000Y-118110000D03*
X165100000Y-115570000D03*
X167640000Y-118110000D03*
X167640000Y-115570000D03*
X170180000Y-118110000D03*
X170180000Y-115570000D03*
X172720000Y-118110000D03*
X175260000Y-115570000D03*
X172720000Y-115570000D03*
X175260000Y-113030000D03*
X172720000Y-113030000D03*
X175260000Y-110490000D03*
X172720000Y-110490000D03*
X175260000Y-107950000D03*
X172720000Y-107950000D03*
X175260000Y-105410000D03*
X172720000Y-105410000D03*
X175260000Y-102870000D03*
X172720000Y-100330000D03*
X172720000Y-102870000D03*
X170180000Y-100330000D03*
X170180000Y-102870000D03*
X167640000Y-100330000D03*
X167640000Y-102870000D03*
X165100000Y-100330000D03*
X165100000Y-102870000D03*
X162560000Y-100330000D03*
X162560000Y-102870000D03*
X160020000Y-100330000D03*
X157480000Y-102870000D03*
X160020000Y-102870000D03*
X157480000Y-105410000D03*
X160020000Y-105410000D03*
X157480000Y-107950000D03*
D17*
X132898311Y-82546531D03*
X129716331Y-85728511D03*
D18*
X135549962Y-83430414D03*
X130600214Y-88380162D03*
D11*
X139065000Y-83820000D03*
X144145000Y-83820000D03*
D10*
X137795000Y-99695000D03*
D11*
X145415000Y-99695000D03*
X145415000Y-92075000D03*
X137795000Y-92075000D03*
D19*
X205740000Y-81280000D03*
D20*
X208280000Y-81280000D03*
X210820000Y-81280000D03*
D12*
X153670000Y-93980000D03*
D13*
X156210000Y-93980000D03*
D11*
X179070000Y-81280000D03*
X179070000Y-86360000D03*
M02*
